<svg width="24" height="16" viewBox="0 0 24 16" fill="none" xmlns="http://www.w3.org/2000/svg">
<path d="M22.6641 0.811247C22.4822 0.670575 22.2703 0.573925 22.0449 0.52887C21.8194 0.483816 21.5866 0.491582 21.3647 0.551559L21.0384 0.639685C19.2759 1.115 15.9947 2 12 2C8.00531 2 4.72406 1.115 2.96156 0.639685L2.63531 0.551559C2.4133 0.492549 2.1807 0.485321 1.95545 0.530431C1.7302 0.575542 1.51832 0.671786 1.33615 0.811741C1.15398 0.951696 1.00639 1.13162 0.904765 1.33764C0.803138 1.54366 0.750188 1.77027 0.75 2V14C0.75 14.3978 0.908035 14.7794 1.18934 15.0607C1.47064 15.342 1.85218 15.5 2.25 15.5C2.38231 15.4999 2.51405 15.4826 2.64188 15.4484L2.94 15.3678C4.69969 14.8897 7.98469 14 12 14C16.0153 14 19.3003 14.8897 21.0647 15.3678L21.3628 15.4484C21.5849 15.5078 21.8178 15.5153 22.0432 15.4703C22.2687 15.4254 22.4809 15.3292 22.6633 15.1892C22.8457 15.0492 22.9935 14.8691 23.0952 14.6629C23.1969 14.4568 23.2499 14.2299 23.25 14V2C23.2506 1.77008 23.1981 1.54314 23.0964 1.33692C22.9948 1.1307 22.8468 0.950785 22.6641 0.811247ZM2.57063 2.08718C4.40062 2.58125 7.80656 3.5 12 3.5C16.1934 3.5 19.5994 2.58125 21.4294 2.08718L21.75 2V13.1337L16.3059 7.68968C16.1666 7.55036 16.0013 7.43984 15.8193 7.36444C15.6372 7.28903 15.4422 7.25022 15.2452 7.25022C15.0481 7.25022 14.8531 7.28903 14.6711 7.36444C14.489 7.43984 14.3237 7.55036 14.1844 7.68968L12.3094 9.56468L8.18438 5.43968C7.9031 5.15859 7.52172 5.00069 7.12406 5.00069C6.72641 5.00069 6.34503 5.15859 6.06375 5.43968L2.25 9.25343V2L2.57063 2.08718ZM20.0475 13.5509C18.5357 13.1724 17.0014 12.8906 15.4537 12.7072L13.3716 10.625L15.2466 8.75L20.0475 13.5509ZM2.54344 13.9194L2.25 14V11.375L7.125 6.5L13.1484 12.5234C12.7734 12.5084 12.3906 12.5006 12 12.5C7.78125 12.5 4.245 13.4591 2.54344 13.9194ZM18 6.125C18 5.90249 18.066 5.68499 18.1896 5.49998C18.3132 5.31498 18.4889 5.17078 18.6945 5.08563C18.9 5.00048 19.1262 4.97821 19.3445 5.02161C19.5627 5.06502 19.7632 5.17217 19.9205 5.3295C20.0778 5.48684 20.185 5.68729 20.2284 5.90552C20.2718 6.12375 20.2495 6.34995 20.1644 6.55552C20.0792 6.76108 19.935 6.93678 19.75 7.0604C19.565 7.18402 19.3475 7.25 19.125 7.25C18.8266 7.25 18.5405 7.13147 18.3295 6.92049C18.1185 6.70951 18 6.42337 18 6.125Z" fill="black"/>
</svg>
