<svg width="54" height="42" viewBox="0 0 54 42" fill="none" xmlns="http://www.w3.org/2000/svg">
<path d="M51.5 38.5H49.75V8.75C49.75 8.28587 49.5656 7.84075 49.2374 7.51256C48.9092 7.18437 48.4641 7 48 7H39.25V1.75C39.25 1.28587 39.0656 0.840752 38.7374 0.512563C38.4092 0.184375 37.9641 0 37.5 0H16.5C16.0359 0 15.5908 0.184375 15.2626 0.512563C14.9344 0.840752 14.75 1.28587 14.75 1.75V14H6C5.53587 14 5.09075 14.1844 4.76256 14.5126C4.43437 14.8408 4.25 15.2859 4.25 15.75V38.5H2.5C2.03587 38.5 1.59075 38.6844 1.26256 39.0126C0.934374 39.3408 0.75 39.7859 0.75 40.25C0.75 40.7141 0.934374 41.1592 1.26256 41.4874C1.59075 41.8156 2.03587 42 2.5 42H51.5C51.9641 42 52.4092 41.8156 52.7374 41.4874C53.0656 41.1592 53.25 40.7141 53.25 40.25C53.25 39.7859 53.0656 39.3408 52.7374 39.0126C52.4092 38.6844 51.9641 38.5 51.5 38.5ZM7.75 17.5H16.5C16.9641 17.5 17.4092 17.3156 17.7374 16.9874C18.0656 16.6592 18.25 16.2141 18.25 15.75V3.5H35.75V8.75C35.75 9.21413 35.9344 9.65925 36.2626 9.98744C36.5908 10.3156 37.0359 10.5 37.5 10.5H46.25V38.5H32.25V29.75C32.25 29.2859 32.0656 28.8407 31.7374 28.5126C31.4093 28.1844 30.9641 28 30.5 28H23.5C23.0359 28 22.5908 28.1844 22.2626 28.5126C21.9344 28.8407 21.75 29.2859 21.75 29.75V38.5H7.75V17.5ZM28.75 38.5H25.25V31.5H28.75V38.5ZM23.5 8.75C23.5 8.28587 23.6844 7.84075 24.0126 7.51256C24.3408 7.18437 24.7859 7 25.25 7H28.75C29.2141 7 29.6593 7.18437 29.9874 7.51256C30.3156 7.84075 30.5 8.28587 30.5 8.75C30.5 9.21413 30.3156 9.65925 29.9874 9.98744C29.6593 10.3156 29.2141 10.5 28.75 10.5H25.25C24.7859 10.5 24.3408 10.3156 24.0126 9.98744C23.6844 9.65925 23.5 9.21413 23.5 8.75ZM23.5 15.75C23.5 15.2859 23.6844 14.8408 24.0126 14.5126C24.3408 14.1844 24.7859 14 25.25 14H28.75C29.2141 14 29.6593 14.1844 29.9874 14.5126C30.3156 14.8408 30.5 15.2859 30.5 15.75C30.5 16.2141 30.3156 16.6592 29.9874 16.9874C29.6593 17.3156 29.2141 17.5 28.75 17.5H25.25C24.7859 17.5 24.3408 17.3156 24.0126 16.9874C23.6844 16.6592 23.5 16.2141 23.5 15.75ZM35.75 15.75C35.75 15.2859 35.9344 14.8408 36.2626 14.5126C36.5908 14.1844 37.0359 14 37.5 14H41C41.4641 14 41.9092 14.1844 42.2374 14.5126C42.5656 14.8408 42.75 15.2859 42.75 15.75C42.75 16.2141 42.5656 16.6592 42.2374 16.9874C41.9092 17.3156 41.4641 17.5 41 17.5H37.5C37.0359 17.5 36.5908 17.3156 36.2626 16.9874C35.9344 16.6592 35.75 16.2141 35.75 15.75ZM18.25 22.75C18.25 23.2141 18.0656 23.6593 17.7374 23.9874C17.4092 24.3156 16.9641 24.5 16.5 24.5H13C12.5359 24.5 12.0908 24.3156 11.7626 23.9874C11.4344 23.6593 11.25 23.2141 11.25 22.75C11.25 22.2859 11.4344 21.8407 11.7626 21.5126C12.0908 21.1844 12.5359 21 13 21H16.5C16.9641 21 17.4092 21.1844 17.7374 21.5126C18.0656 21.8407 18.25 22.2859 18.25 22.75ZM18.25 29.75C18.25 30.2141 18.0656 30.6593 17.7374 30.9874C17.4092 31.3156 16.9641 31.5 16.5 31.5H13C12.5359 31.5 12.0908 31.3156 11.7626 30.9874C11.4344 30.6593 11.25 30.2141 11.25 29.75C11.25 29.2859 11.4344 28.8407 11.7626 28.5126C12.0908 28.1844 12.5359 28 13 28H16.5C16.9641 28 17.4092 28.1844 17.7374 28.5126C18.0656 28.8407 18.25 29.2859 18.25 29.75ZM23.5 22.75C23.5 22.2859 23.6844 21.8407 24.0126 21.5126C24.3408 21.1844 24.7859 21 25.25 21H28.75C29.2141 21 29.6593 21.1844 29.9874 21.5126C30.3156 21.8407 30.5 22.2859 30.5 22.75C30.5 23.2141 30.3156 23.6593 29.9874 23.9874C29.6593 24.3156 29.2141 24.5 28.75 24.5H25.25C24.7859 24.5 24.3408 24.3156 24.0126 23.9874C23.6844 23.6593 23.5 23.2141 23.5 22.75ZM35.75 22.75C35.75 22.2859 35.9344 21.8407 36.2626 21.5126C36.5908 21.1844 37.0359 21 37.5 21H41C41.4641 21 41.9092 21.1844 42.2374 21.5126C42.5656 21.8407 42.75 22.2859 42.75 22.75C42.75 23.2141 42.5656 23.6593 42.2374 23.9874C41.9092 24.3156 41.4641 24.5 41 24.5H37.5C37.0359 24.5 36.5908 24.3156 36.2626 23.9874C35.9344 23.6593 35.75 23.2141 35.75 22.75ZM35.75 29.75C35.75 29.2859 35.9344 28.8407 36.2626 28.5126C36.5908 28.1844 37.0359 28 37.5 28H41C41.4641 28 41.9092 28.1844 42.2374 28.5126C42.5656 28.8407 42.75 29.2859 42.75 29.75C42.75 30.2141 42.5656 30.6593 42.2374 30.9874C41.9092 31.3156 41.4641 31.5 41 31.5H37.5C37.0359 31.5 36.5908 31.3156 36.2626 30.9874C35.9344 30.6593 35.75 30.2141 35.75 29.75Z" fill="white"/>
</svg>
