<svg width="56" height="56" viewBox="0 0 56 56" fill="none" xmlns="http://www.w3.org/2000/svg">
<path d="M28 29.75C28 30.2141 27.8156 30.6593 27.4874 30.9874C27.1592 31.3156 26.7141 31.5 26.25 31.5H15.75C15.2859 31.5 14.8408 31.3156 14.5126 30.9874C14.1844 30.6593 14 30.2141 14 29.75C14 29.2859 14.1844 28.8408 14.5126 28.5126C14.8408 28.1844 15.2859 28 15.75 28H26.25C26.7141 28 27.1592 28.1844 27.4874 28.5126C27.8156 28.8408 28 29.2859 28 29.75ZM26.25 21H15.75C15.2859 21 14.8408 21.1844 14.5126 21.5126C14.1844 21.8408 14 22.2859 14 22.75C14 23.2141 14.1844 23.6592 14.5126 23.9874C14.8408 24.3156 15.2859 24.5 15.75 24.5H26.25C26.7141 24.5 27.1592 24.3156 27.4874 23.9874C27.8156 23.6592 28 23.2141 28 22.75C28 22.2859 27.8156 21.8408 27.4874 21.5126C27.1592 21.1844 26.7141 21 26.25 21ZM50.75 35.3216V49C50.7528 49.3085 50.6739 49.6123 50.5215 49.8805C50.369 50.1488 50.1483 50.3719 49.8818 50.5274C49.6153 50.6828 49.3125 50.7651 49.0039 50.7657C48.6954 50.7664 48.3922 50.6855 48.125 50.5313L42.875 47.5256L37.625 50.5313C37.3578 50.6855 37.0546 50.7664 36.7461 50.7657C36.4375 50.7651 36.1347 50.6828 35.8682 50.5274C35.6017 50.3719 35.381 50.1488 35.2285 49.8805C35.0761 49.6123 34.9972 49.3085 35 49V43.75H8.75C7.82174 43.75 6.9315 43.3813 6.27513 42.7249C5.61875 42.0685 5.25 41.1783 5.25 40.25V12.25C5.25 11.3217 5.61875 10.4315 6.27513 9.77513C6.9315 9.11875 7.82174 8.75 8.75 8.75H47.25C48.1783 8.75 49.0685 9.11875 49.7249 9.77513C50.3812 10.4315 50.75 11.3217 50.75 12.25V18.9284C51.8562 19.9878 52.7366 21.2602 53.338 22.6688C53.9395 24.0775 54.2495 25.5933 54.2495 27.125C54.2495 28.6567 53.9395 30.1725 53.338 31.5812C52.7366 32.9899 51.8562 34.2622 50.75 35.3216ZM35 40.25V35.3216C33.093 33.4824 31.8877 31.0352 31.5923 28.4023C31.2969 25.7694 31.9297 23.116 33.3817 20.8999C34.8337 18.6838 37.0137 17.044 39.5456 16.2636C42.0774 15.4831 44.8023 15.611 47.25 16.625V12.25H8.75V40.25H35ZM47.25 37.625C45.8641 38.204 44.377 38.5022 42.875 38.5022C41.373 38.5022 39.8859 38.204 38.5 37.625V45.9856L42 43.9819C42.2645 43.8307 42.5638 43.7512 42.8684 43.7512C43.1731 43.7512 43.4724 43.8307 43.7369 43.9819L47.2369 45.9856L47.25 37.625ZM50.75 27.125C50.75 25.5675 50.2881 24.0449 49.4228 22.7499C48.5575 21.4548 47.3276 20.4455 45.8886 19.8494C44.4497 19.2534 42.8663 19.0975 41.3387 19.4013C39.8111 19.7052 38.4079 20.4552 37.3065 21.5565C36.2052 22.6579 35.4552 24.0611 35.1513 25.5887C34.8475 27.1163 35.0034 28.6997 35.5994 30.1386C36.1955 31.5776 37.2048 32.8075 38.4999 33.6728C39.7949 34.5381 41.3175 35 42.875 35C43.9092 35 44.9332 34.7963 45.8886 34.4006C46.8441 34.0048 47.7122 33.4247 48.4435 32.6935C49.1747 31.9622 49.7548 31.0941 50.1506 30.1386C50.5463 29.1832 50.75 28.1592 50.75 27.125Z" fill="white"/>
</svg>
