<svg width="56" height="56" viewBox="0 0 56 56" fill="none" xmlns="http://www.w3.org/2000/svg">
<path d="M53.5497 32.9C53.3658 33.0379 53.1566 33.1382 52.934 33.1953C52.7114 33.2523 52.4797 33.2649 52.2522 33.2324C52.0247 33.1999 51.8058 33.1229 51.6081 33.0058C51.4103 32.8887 51.2376 32.7339 51.0997 32.55C50.0449 31.1322 48.672 29.9819 47.0914 29.1916C45.5108 28.4013 43.7668 27.9931 41.9997 28C41.6556 28 41.3191 27.8985 41.0323 27.7082C40.7456 27.518 40.5213 27.2474 40.3875 26.9303C40.2967 26.715 40.2499 26.4837 40.2499 26.25C40.2499 26.0163 40.2967 25.785 40.3875 25.5697C40.5213 25.2526 40.7456 24.982 41.0323 24.7918C41.3191 24.6015 41.6556 24.5 41.9997 24.5C42.9816 24.4999 43.9438 24.2245 44.777 23.7049C45.6102 23.1854 46.281 22.4426 46.7132 21.561C47.1455 20.6793 47.3218 19.6941 47.2221 18.7173C47.1225 17.7404 46.7509 16.8111 46.1496 16.0349C45.5482 15.2586 44.7413 14.6666 43.8203 14.326C42.8994 13.9854 41.9014 13.9099 40.9397 14.108C39.978 14.3062 39.0911 14.7701 38.3799 15.447C37.6686 16.1239 37.1614 16.9868 36.9159 17.9375C36.8585 18.1601 36.7577 18.3693 36.6195 18.553C36.4812 18.7367 36.3081 18.8913 36.11 19.0081C35.912 19.1249 35.6929 19.2016 35.4652 19.2337C35.2375 19.2658 35.0058 19.2528 34.7831 19.1953C34.5605 19.1379 34.3514 19.0371 34.1677 18.8988C33.984 18.7606 33.8293 18.5875 33.7125 18.3894C33.5957 18.1914 33.5191 17.9722 33.4869 17.7446C33.4548 17.5169 33.4679 17.2851 33.5253 17.0625C33.866 15.7441 34.5097 14.5235 35.4052 13.4976C36.3007 12.4718 37.4233 11.6692 38.6835 11.1535C39.9438 10.6379 41.3071 10.4235 42.6648 10.5274C44.0225 10.6313 45.3372 11.0507 46.5043 11.7522C47.6715 12.4536 48.6588 13.4178 49.3877 14.5679C50.1166 15.7181 50.5671 17.0225 50.7032 18.3774C50.8393 19.7322 50.6573 21.1002 50.1717 22.3723C49.686 23.6445 48.9102 24.7858 47.9059 25.7053C50.2855 26.7356 52.3541 28.3706 53.9062 30.4478C54.0441 30.6321 54.1443 30.8418 54.201 31.0649C54.2577 31.288 54.2699 31.5201 54.2367 31.7479C54.2036 31.9757 54.1259 32.1947 54.008 32.3924C53.8901 32.5901 53.7344 32.7626 53.5497 32.9ZM41.7634 46.375C41.8901 46.5742 41.9751 46.7969 42.0134 47.0298C42.0517 47.2627 42.0425 47.5009 41.9863 47.7302C41.9302 47.9594 41.8282 48.1749 41.6866 48.3638C41.545 48.5526 41.3667 48.7108 41.1624 48.8289C40.958 48.947 40.7319 49.0226 40.4976 49.0511C40.2633 49.0795 40.0257 49.0603 39.799 48.9945C39.5723 48.9288 39.3613 48.8178 39.1786 48.6684C38.9959 48.519 38.8453 48.3341 38.7359 48.125C37.6335 46.2583 36.0635 44.7114 34.1807 43.6367C32.298 42.562 30.1676 41.9968 27.9997 41.9968C25.8318 41.9968 23.7014 42.562 21.8186 43.6367C19.9359 44.7114 18.3658 46.2583 17.2634 48.125C17.154 48.3341 17.0035 48.519 16.8208 48.6684C16.6381 48.8178 16.4271 48.9288 16.2004 48.9945C15.9737 49.0603 15.7361 49.0795 15.5018 49.0511C15.2675 49.0226 15.0414 48.947 14.837 48.8289C14.6327 48.7108 14.4543 48.5526 14.3127 48.3638C14.1711 48.1749 14.0692 47.9594 14.013 47.7302C13.9569 47.5009 13.9477 47.2627 13.986 47.0298C14.0243 46.7969 14.1093 46.5742 14.2359 46.375C15.9326 43.4599 18.5195 41.1659 21.6166 39.83C19.8738 38.4957 18.5931 36.6488 17.9543 34.549C17.3154 32.4492 17.3507 30.2019 18.0551 28.1232C18.7595 26.0444 20.0977 24.2387 21.8814 22.9597C23.6651 21.6808 25.8048 20.993 27.9997 20.993C30.1945 20.993 32.3342 21.6808 34.118 22.9597C35.9017 24.2387 37.2398 26.0444 37.9442 28.1232C38.6487 30.2019 38.6839 32.4492 38.0451 34.549C37.4063 36.6488 36.1255 38.4957 34.3828 39.83C37.4799 41.1659 40.0668 43.4599 41.7634 46.375ZM27.9997 38.5C29.3842 38.5 30.7375 38.0895 31.8887 37.3203C33.0398 36.5511 33.937 35.4579 34.4668 34.1788C34.9967 32.8997 35.1353 31.4922 34.8652 30.1344C34.5951 28.7765 33.9284 27.5292 32.9494 26.5503C31.9705 25.5713 30.7232 24.9046 29.3653 24.6345C28.0075 24.3644 26.6 24.503 25.3209 25.0328C24.0418 25.5627 22.9486 26.4599 22.1794 27.611C21.4102 28.7622 20.9997 30.1155 20.9997 31.5C20.9997 33.3565 21.7372 35.137 23.0499 36.4498C24.3627 37.7625 26.1432 38.5 27.9997 38.5ZM15.7497 26.25C15.7497 25.7859 15.5653 25.3408 15.2371 25.0126C14.9089 24.6844 14.4638 24.5 13.9997 24.5C13.0178 24.4999 12.0556 24.2245 11.2224 23.7049C10.3892 23.1854 9.71835 22.4426 9.28613 21.561C8.85391 20.6793 8.67761 19.6941 8.77725 18.7173C8.87688 17.7404 9.24847 16.8111 9.8498 16.0349C10.4511 15.2586 11.2581 14.6666 12.179 14.326C13.1 13.9854 14.098 13.9099 15.0597 14.108C16.0214 14.3062 16.9082 14.7701 17.6195 15.447C18.3308 16.1239 18.838 16.9868 19.0834 17.9375C19.1995 18.3871 19.4894 18.7722 19.8893 19.0081C20.2893 19.244 20.7666 19.3113 21.2162 19.1953C21.6659 19.0793 22.051 18.7894 22.2869 18.3894C22.5228 17.9894 22.5901 17.5121 22.4741 17.0625C22.1333 15.7441 21.4896 14.5235 20.5941 13.4976C19.6987 12.4718 18.5761 11.6692 17.3158 11.1535C16.0556 10.6379 14.6923 10.4235 13.3346 10.5274C11.9769 10.6313 10.6621 11.0507 9.49503 11.7522C8.3279 12.4536 7.3406 13.4178 6.61167 14.5679C5.88274 15.7181 5.43231 17.0225 5.29621 18.3774C5.16012 19.7322 5.34211 21.1002 5.82772 22.3723C6.31333 23.6445 7.08914 24.7858 8.09344 25.7053C5.71624 26.7366 3.65 28.3715 2.09969 30.4478C1.82092 30.8191 1.70107 31.286 1.7665 31.7456C1.83193 32.2053 2.07729 32.6201 2.44859 32.8989C2.8199 33.1777 3.28673 33.2975 3.7464 33.2321C4.20607 33.1667 4.62092 32.9213 4.89969 32.55C5.95447 31.1322 7.3274 29.9819 8.90797 29.1916C10.4885 28.4013 12.2326 27.9931 13.9997 28C14.4638 28 14.9089 27.8156 15.2371 27.4874C15.5653 27.1593 15.7497 26.7141 15.7497 26.25Z" fill="white"/>
</svg>
