<svg width="57" height="56" viewBox="0 0 57 56" fill="none" xmlns="http://www.w3.org/2000/svg">
<g clip-path="url(#clip0_165_6859)">
<path d="M55.5724 19.4556L29.3224 5.45564C29.0692 5.32082 28.7868 5.25031 28.4999 5.25031C28.2131 5.25031 27.9306 5.32082 27.6774 5.45564L1.42744 19.4556C1.14745 19.6049 0.913293 19.8274 0.750016 20.0994C0.58674 20.3714 0.500488 20.6827 0.500488 21C0.500488 21.3173 0.58674 21.6286 0.750016 21.9006C0.913293 22.1726 1.14745 22.3952 1.42744 22.5444L7.49994 25.7841V36.3759C7.49812 37.2355 7.81448 38.0654 8.38807 38.7056C11.2537 41.8972 17.674 47.25 28.4999 47.25C32.0895 47.2797 35.6523 46.6295 38.9999 45.3338V52.5C38.9999 52.9641 39.1843 53.4093 39.5125 53.7375C39.8407 54.0656 40.2858 54.25 40.7499 54.25C41.2141 54.25 41.6592 54.0656 41.9874 53.7375C42.3156 53.4093 42.4999 52.9641 42.4999 52.5V43.6428C44.782 42.3255 46.8441 40.6597 48.6118 38.7056C49.1854 38.0654 49.5018 37.2355 49.4999 36.3759V25.7841L55.5724 22.5444C55.8524 22.3952 56.0866 22.1726 56.2499 21.9006C56.4131 21.6286 56.4994 21.3173 56.4994 21C56.4994 20.6827 56.4131 20.3714 56.2499 20.0994C56.0866 19.8274 55.8524 19.6049 55.5724 19.4556ZM28.4999 43.75C19.0346 43.75 13.4674 39.1256 10.9999 36.3759V27.65L27.6774 36.5444C27.9306 36.6792 28.2131 36.7497 28.4999 36.7497C28.7868 36.7497 29.0692 36.6792 29.3224 36.5444L38.9999 31.3841V41.521C36.2437 42.8072 32.7699 43.75 28.4999 43.75ZM45.9999 36.3672C44.9509 37.5313 43.7772 38.5766 42.4999 39.4844V29.516L45.9999 27.65V36.3672ZM41.6249 26.0181L41.5768 25.9897L29.3268 19.4556C28.9181 19.2469 28.4438 19.207 28.0059 19.3447C27.5681 19.4823 27.2019 19.7864 26.9862 20.1915C26.7705 20.5966 26.7225 21.0702 26.8526 21.5103C26.9827 21.9504 27.2805 22.3217 27.6818 22.5444L37.9062 28L28.4999 33.016L5.96869 21L28.4999 8.98408L51.0312 21L41.6249 26.0181Z" fill="white"/>
</g>
<defs>
<clipPath id="clip0_165_6859">
<rect width="56" height="56" fill="white" transform="translate(0.5)"/>
</clipPath>
</defs>
</svg>
