<svg width="28" height="28" viewBox="0 0 28 28" fill="none" xmlns="http://www.w3.org/2000/svg">
<path d="M26.721 25.306L20.4622 19.0485C22.2763 16.8707 23.1808 14.0773 22.9878 11.2495C22.7947 8.42163 21.5189 5.77711 19.4256 3.866C17.3324 1.9549 14.583 0.924355 11.7494 0.988755C8.91568 1.05315 6.21592 2.20754 4.2117 4.21176C2.20747 6.21599 1.05309 8.91575 0.988686 11.7494C0.924286 14.5831 1.95483 17.3325 3.86593 19.4257C5.77704 21.5189 8.42157 22.7948 11.2494 22.9878C14.0772 23.1809 16.8706 22.2763 19.0485 20.4623L25.306 26.721C25.3989 26.8139 25.5092 26.8876 25.6306 26.9379C25.752 26.9882 25.8821 27.0141 26.0135 27.0141C26.1449 27.0141 26.275 26.9882 26.3964 26.9379C26.5178 26.8876 26.6281 26.8139 26.721 26.721C26.8139 26.6281 26.8876 26.5178 26.9379 26.3964C26.9881 26.275 27.014 26.1449 27.014 26.0135C27.014 25.8821 26.9881 25.752 26.9379 25.6306C26.8876 25.5092 26.8139 25.3989 26.721 25.306ZM3.01347 12.0135C3.01347 10.2335 3.54131 8.49345 4.53024 7.0134C5.51918 5.53336 6.92478 4.37981 8.56932 3.69862C10.2139 3.01743 12.0235 2.8392 13.7693 3.18647C15.5151 3.53374 17.1188 4.3909 18.3774 5.64958C19.6361 6.90825 20.4933 8.5119 20.8405 10.2577C21.1878 12.0036 21.0096 13.8132 20.3284 15.4577C19.6472 17.1022 18.4936 18.5078 17.0136 19.4968C15.5336 20.4857 13.7935 21.0135 12.0135 21.0135C9.62733 21.0109 7.33968 20.0618 5.65243 18.3746C3.96518 16.6873 3.01612 14.3997 3.01347 12.0135Z" fill="white"/>
</svg>
