<svg width="57" height="56" viewBox="0 0 57 56" fill="none" xmlns="http://www.w3.org/2000/svg">
<path d="M50.0534 12.3397L29.0534 5.3397C28.6942 5.21994 28.3058 5.21994 27.9466 5.3397L6.94656 12.3397C6.5981 12.4559 6.29503 12.6787 6.08028 12.9767C5.86552 13.2747 5.74997 13.6327 5.75 14V31.5C5.75 31.9641 5.93437 32.4093 6.26256 32.7374C6.59075 33.0656 7.03587 33.25 7.5 33.25C7.96413 33.25 8.40925 33.0656 8.73744 32.7374C9.06563 32.4093 9.25 31.9641 9.25 31.5V16.4281L16.5978 18.8759C14.6456 22.0299 14.0248 25.8297 14.8717 29.4409C15.7187 33.0522 17.9641 36.1797 21.115 38.1369C17.1775 39.6813 13.7738 42.4747 11.2844 46.2941C11.1549 46.4865 11.065 46.7027 11.0198 46.9302C10.9747 47.1577 10.9752 47.3919 11.0213 47.6192C11.0675 47.8464 11.1583 48.0623 11.2886 48.2541C11.4189 48.446 11.586 48.6101 11.7803 48.7368C11.9745 48.8635 12.192 48.9503 12.4201 48.9922C12.6482 49.0341 12.8824 49.0302 13.109 48.9808C13.3356 48.9314 13.5501 48.8375 13.7401 48.7045C13.9301 48.5715 14.0917 48.402 14.2156 48.2059C17.5122 43.1484 22.7184 40.25 28.5 40.25C34.2816 40.25 39.4878 43.1484 42.7844 48.2059C43.041 48.5874 43.4375 48.8526 43.8881 48.9441C44.3387 49.0355 44.8072 48.946 45.1924 48.6948C45.5775 48.4436 45.8483 48.051 45.9462 47.6017C46.0441 47.1525 45.9613 46.6827 45.7156 46.2941C43.2262 42.4747 39.8094 39.6813 35.885 38.1369C39.0329 36.1798 41.2762 33.0543 42.123 29.4457C42.9698 25.8371 42.3509 22.0399 40.4022 18.8869L50.0534 15.6713C50.402 15.5552 50.7051 15.3323 50.92 15.0343C51.1348 14.7363 51.2504 14.3783 51.2504 14.0109C51.2504 13.6436 51.1348 13.2855 50.92 12.9876C50.7051 12.6896 50.402 12.4667 50.0534 12.3506V12.3397ZM39 26.25C39.0005 27.91 38.6074 29.5465 37.8529 31.0251C37.0985 32.5038 36.0042 33.7825 34.6598 34.7563C33.3155 35.7301 31.7594 36.3714 30.1193 36.6274C28.4792 36.8834 26.8017 36.7469 25.2245 36.229C23.6474 35.7112 22.2155 34.8268 21.0463 33.6484C19.8771 32.47 19.004 31.0312 18.4986 29.45C17.9931 27.8688 17.8698 26.1904 18.1386 24.5523C18.4075 22.9142 19.0609 21.3632 20.0453 20.0266L27.9466 22.6516C28.3058 22.7713 28.6942 22.7713 29.0534 22.6516L36.9547 20.0266C38.2842 21.8291 39.0011 24.0102 39 26.25ZM28.5 19.1559L13.0344 14L28.5 8.84407L43.9656 14L28.5 19.1559Z" fill="white"/>
</svg>
