<svg width="182" height="182" viewBox="0 0 182 182" fill="none" xmlns="http://www.w3.org/2000/svg">
<path d="M91.0002 173.526C135.911 173.526 172.318 153.727 172.318 129.304C172.318 104.881 135.911 85.0815 91.0002 85.0815C46.0897 85.0815 9.68262 104.881 9.68262 129.304C9.68262 153.727 46.0897 173.526 91.0002 173.526Z" fill="#F5F5F5"/>
<path d="M91.0003 126.989C97.767 126.989 103.253 123.821 103.253 119.913C103.253 116.005 97.767 112.836 91.0003 112.836C84.2336 112.836 78.748 116.005 78.748 119.913C78.748 123.821 84.2336 126.989 91.0003 126.989Z" fill="#E0E0E0"/>
<path d="M136.693 145.898C147.39 145.898 156.061 140.892 156.061 134.716C156.061 128.541 147.39 123.534 136.693 123.534C125.996 123.534 117.324 128.541 117.324 134.716C117.324 140.892 125.996 145.898 136.693 145.898Z" fill="#E0E0E0"/>
<path d="M41.6487 147.107C52.3456 147.107 61.0172 142.1 61.0172 135.925C61.0172 129.749 52.3456 124.743 41.6487 124.743C30.9518 124.743 22.2803 129.749 22.2803 135.925C22.2803 142.1 30.9518 147.107 41.6487 147.107Z" fill="#E0E0E0"/>
<path d="M165.62 126.77L161.961 125.274C161.502 122.112 161.237 118.925 161.168 115.73C161.168 109.753 164.892 102.444 169.616 103.667C174.341 104.89 168.284 111.577 167.301 116.742C166.319 121.907 165.62 126.77 165.62 126.77Z" fill="#F2A742"/>
<path opacity="0.3" d="M165.62 126.77L161.961 125.274C161.502 122.112 161.237 118.925 161.168 115.73C161.168 109.753 164.892 102.444 169.616 103.667C174.341 104.89 168.284 111.577 167.301 116.742C166.319 121.907 165.62 126.77 165.62 126.77Z" fill="black"/>
<path d="M163.847 126.308C163.887 126.303 163.923 126.282 163.948 126.249C163.972 126.217 163.983 126.177 163.978 126.137C162.234 113.033 168.128 105.753 168.186 105.691C168.212 105.66 168.224 105.619 168.221 105.579C168.217 105.538 168.197 105.501 168.166 105.474C168.134 105.448 168.094 105.436 168.053 105.44C168.013 105.443 167.975 105.463 167.949 105.494C167.891 105.567 161.911 112.935 163.672 126.177C163.675 126.197 163.682 126.217 163.692 126.234C163.702 126.252 163.716 126.267 163.732 126.279C163.748 126.291 163.767 126.3 163.787 126.305C163.806 126.31 163.827 126.311 163.847 126.308Z" fill="white"/>
<path d="M167.498 127.644L165.587 126.777C165.015 123.833 165.102 120.799 165.842 117.892C167.068 113.182 171.152 110.277 173.209 110.758C175.724 111.344 175.968 113.67 175.233 115.29C174.356 117.208 168.306 122.402 167.498 127.644Z" fill="#F2A742"/>
<path opacity="0.1" d="M167.498 127.644L165.587 126.777C165.015 123.833 165.102 120.799 165.842 117.892C167.068 113.182 171.152 110.277 173.209 110.758C175.724 111.344 175.968 113.67 175.233 115.29C174.356 117.208 168.306 122.402 167.498 127.644Z" fill="black"/>
<path d="M166.504 127.342C166.545 127.337 166.582 127.316 166.608 127.284C166.634 127.252 166.646 127.211 166.642 127.17C165.783 118.857 173.038 112.465 173.114 112.403C173.142 112.373 173.157 112.334 173.157 112.294C173.157 112.253 173.142 112.214 173.114 112.185C173.1 112.17 173.083 112.158 173.064 112.151C173.046 112.143 173.025 112.139 173.005 112.139C172.985 112.139 172.965 112.143 172.946 112.151C172.927 112.158 172.91 112.17 172.896 112.185C172.819 112.25 165.448 118.737 166.318 127.218C166.327 127.258 166.351 127.294 166.386 127.317C166.421 127.34 166.463 127.349 166.504 127.342Z" fill="white"/>
<path d="M20.3832 123.421L22.8948 121.987C22.8948 121.987 24.096 115.359 23.1969 109.659C21.9302 101.651 16.4738 98.8806 14.4937 99.6777C12.5135 100.475 12.0476 102.848 15.6257 107.478C17.7369 110.208 20.4523 115.985 20.3832 123.421Z" fill="#F2A742"/>
<g opacity="0.15">
<path d="M20.3832 123.421L22.8948 121.987C22.8948 121.987 24.096 115.359 23.1969 109.659C21.9302 101.651 16.4738 98.8806 14.4937 99.6777C12.5135 100.475 12.0476 102.848 15.6257 107.478C17.7369 110.208 20.4523 115.985 20.3832 123.421Z" fill="black"/>
</g>
<path d="M21.294 120.24H21.2685C21.2455 120.237 21.2233 120.229 21.2033 120.217C21.1832 120.206 21.1657 120.19 21.1518 120.171C21.1379 120.153 21.1279 120.131 21.1223 120.109C21.1167 120.086 21.1157 120.063 21.1193 120.04C22.1531 112.538 19.1391 104.319 15.7467 101.006C15.7256 100.991 15.7081 100.971 15.6953 100.949C15.6825 100.926 15.6747 100.901 15.6725 100.875C15.6703 100.849 15.6737 100.823 15.6825 100.798C15.6913 100.773 15.7052 100.751 15.7234 100.732C15.7415 100.714 15.7635 100.699 15.7878 100.69C15.8121 100.68 15.8381 100.676 15.8641 100.678C15.8901 100.679 15.9155 100.686 15.9386 100.698C15.9617 100.71 15.9819 100.727 15.9978 100.748C19.4485 104.104 22.5243 112.476 21.476 120.084C21.4698 120.127 21.448 120.167 21.4145 120.196C21.381 120.225 21.3382 120.241 21.294 120.24Z" fill="white"/>
<path d="M13.424 127.444C13.0272 127.669 12.2118 127.174 11.8988 126.963C11.3618 126.593 10.9283 126.092 10.6394 125.507C10.3166 124.847 10.2072 124.103 10.3263 123.378C10.3893 122.995 10.4793 122.616 10.5957 122.246L10.9124 121.154C11.0371 120.804 11.0916 120.433 11.0725 120.062C10.9779 119.308 10.3081 118.784 9.70388 118.329C9.03048 117.827 8.33524 117.164 8.33888 116.258C8.38585 115.556 8.66647 114.89 9.13604 114.365C9.56556 113.816 10.0788 113.332 10.4719 112.753C10.7801 112.347 10.9382 111.846 10.9196 111.337C10.8779 111.027 10.7739 110.728 10.6139 110.46C10.2456 109.9 9.92423 109.31 9.65292 108.698C9.43088 108.064 9.46364 107.278 9.95868 106.823C10.179 106.659 10.43 106.54 10.6969 106.473C10.9638 106.407 11.2412 106.395 11.513 106.437C12.0298 106.498 12.5269 106.672 12.969 106.947C14.4068 107.744 15.2258 109.448 16.7509 110.063C17.3548 110.251 17.9699 110.4 18.5928 110.511C18.9054 110.568 19.2023 110.691 19.4644 110.871C19.7265 111.051 19.9479 111.284 20.1143 111.555C20.6748 112.673 19.6374 114.049 20.0306 115.235C20.3946 116.284 21.3992 116.691 21.9707 117.634C22.205 118.051 22.2994 118.532 22.24 119.006C22.1892 119.809 21.9931 120.596 21.6613 121.329C21.2879 122.057 20.8608 122.757 20.3836 123.422C20.3618 123.447 13.4858 127.4 13.424 127.444Z" fill="#F2A742"/>
<path d="M17.4973 125.274C17.4734 125.273 17.4499 125.268 17.4282 125.258C17.4065 125.247 17.3869 125.233 17.3707 125.216C17.3545 125.198 17.3419 125.178 17.3336 125.155C17.3254 125.133 17.3216 125.109 17.3226 125.085C17.6174 117.987 14.2723 110.161 11.8408 107.868C11.8076 107.834 11.7891 107.789 11.7891 107.742C11.7891 107.695 11.8076 107.65 11.8408 107.616C11.8748 107.583 11.9205 107.564 11.9682 107.564C12.0158 107.564 12.0615 107.583 12.0956 107.616C14.5598 109.928 17.9778 117.899 17.6757 125.103C17.6738 125.149 17.6542 125.193 17.6209 125.224C17.5877 125.256 17.5434 125.274 17.4973 125.274Z" fill="white"/>
<path d="M16.4341 116.884H16.3795C14.6976 116.422 12.9708 116.142 11.2289 116.051C11.1806 116.051 11.1343 116.031 11.1002 115.997C11.066 115.963 11.0469 115.917 11.0469 115.869C11.0469 115.82 11.066 115.774 11.1002 115.74C11.1343 115.706 11.1806 115.687 11.2289 115.687C13.0016 115.779 14.7591 116.063 16.4705 116.535C16.493 116.541 16.5139 116.552 16.5321 116.567C16.5503 116.582 16.5654 116.6 16.5766 116.621C16.5877 116.641 16.5947 116.664 16.5971 116.687C16.5995 116.711 16.5973 116.734 16.5906 116.757C16.58 116.791 16.5595 116.821 16.5316 116.844C16.5038 116.867 16.4698 116.881 16.4341 116.884Z" fill="white"/>
<path d="M146.266 132.409L142.873 132.02L141.996 125.184L146.142 126.414L146.266 132.409Z" fill="#B16668"/>
<path d="M138.833 137.985C138.784 138.12 138.764 138.263 138.774 138.406C138.784 138.549 138.824 138.689 138.891 138.815C139.255 139.237 140.194 139.732 141.476 139.823C142.702 139.911 143.794 139.747 144.511 139.292C144.823 139.131 145.09 138.895 145.288 138.605C145.487 138.315 145.61 137.981 145.647 137.632C145.716 136.937 145.647 136.264 145.971 135.728C146.295 135.193 146.765 134.673 146.87 134.403C146.996 133.939 146.996 133.449 146.87 132.984L138.833 137.985Z" fill="#263238"/>
<path d="M142.186 131.899C142.175 132.163 142.127 132.424 142.044 132.675C141.856 133.214 141.604 133.728 141.294 134.207C141.141 134.461 140.971 134.705 140.784 134.935C140.42 135.375 139.954 135.739 139.561 136.162C139.144 136.56 138.877 137.089 138.804 137.661C138.753 138.622 140.282 138.95 141.086 139.092C141.954 139.243 142.844 139.199 143.693 138.961C144.138 138.845 144.54 138.603 144.851 138.264C145.163 137.925 145.369 137.503 145.447 137.05C145.494 136.78 145.476 136.507 145.509 136.242C145.615 135.628 145.871 135.05 146.255 134.56C146.478 134.277 146.67 133.971 146.827 133.646C147.078 133.053 146.878 132.383 146.717 131.794C146.579 131.28 146.412 130.702 146.23 130.742C146.23 131.007 146.23 131.044 146.051 131.222C145.873 131.401 145.804 131.794 145.549 131.994C145.63 131.772 145.69 131.543 145.727 131.31C145.743 131.216 145.724 131.12 145.673 131.04C145.588 130.965 145.487 130.91 145.378 130.88C144.999 130.753 144.609 130.664 144.213 130.614C143.672 130.552 143.127 130.552 142.586 130.614C142.473 130.634 142.371 130.694 142.298 130.782C142.233 130.878 142.197 130.992 142.196 131.109C142.178 131.248 142.193 131.644 142.186 131.899Z" fill="#455A64"/>
<path d="M141.162 134.411C141.526 134.141 142.811 134.138 143.248 134.185C143.693 134.223 144.122 134.373 144.493 134.622C144.547 134.66 144.614 134.679 144.68 134.673C144.747 134.668 144.809 134.639 144.857 134.593C144.885 134.565 144.906 134.532 144.92 134.496C144.933 134.46 144.939 134.421 144.936 134.382C144.933 134.343 144.922 134.306 144.904 134.272C144.885 134.238 144.859 134.208 144.828 134.185C144.42 133.884 143.936 133.703 143.43 133.664C142.8 133.618 142.166 133.655 141.545 133.774C141.545 133.774 141.057 134.09 141.162 134.411Z" fill="#F5F5F5"/>
<path d="M140.34 135.408C140.791 135.142 142.16 135.179 142.6 135.226C143.037 135.271 143.454 135.43 143.809 135.688C143.863 135.726 143.93 135.744 143.996 135.739C144.062 135.734 144.125 135.706 144.173 135.659C144.2 135.632 144.222 135.599 144.235 135.563C144.249 135.526 144.255 135.487 144.252 135.449C144.249 135.41 144.238 135.372 144.219 135.338C144.201 135.304 144.175 135.275 144.144 135.252C143.547 134.942 142.895 134.752 142.225 134.691C141.133 134.615 140.868 134.833 140.868 134.833C140.742 134.883 140.63 134.961 140.539 135.061C140.447 135.16 140.379 135.279 140.34 135.408Z" fill="#F5F5F5"/>
<path d="M143.86 132.634C143.244 132.564 142.621 132.602 142.018 132.747C141.829 132.853 141.702 133.155 141.825 133.231C142.375 133.083 142.946 133.026 143.514 133.064C143.918 133.104 144.312 133.213 144.679 133.384C144.774 133.428 144.883 133.482 144.978 133.537C145.008 133.556 145.042 133.569 145.078 133.574C145.114 133.579 145.15 133.576 145.185 133.566C145.219 133.555 145.251 133.538 145.278 133.514C145.305 133.49 145.327 133.461 145.342 133.428C145.368 133.374 145.373 133.313 145.356 133.256C145.339 133.198 145.302 133.15 145.251 133.118C144.827 132.86 144.353 132.695 143.86 132.634Z" fill="#F5F5F5"/>
<path d="M133.617 129.3L130.392 128.401V121.882L134.392 122.057L133.617 129.3Z" fill="#B16668"/>
<path d="M123.578 132.791C123.487 133.072 123.504 133.377 123.626 133.646C123.746 133.894 125.052 134.633 126.814 134.512C128.119 134.419 129.376 133.979 130.454 133.238C131.124 132.794 131.823 132.711 132.696 132.663C133.57 132.616 134.713 132.176 134.906 131.768C135.004 131.403 134.994 131.017 134.877 130.658L123.578 132.791Z" fill="#263238"/>
<path d="M130.676 127.294L130.537 127.265C130.461 127.247 130.381 127.247 130.304 127.265C130.22 127.293 130.144 127.343 130.086 127.411C129.914 127.632 129.764 127.87 129.638 128.121C129.274 128.721 128.492 129.213 127.647 129.675C127.072 129.984 126.508 130.225 125.914 130.49C125.321 130.756 124.502 130.931 124.029 131.251C123.337 131.717 123.246 132.885 124.029 133.348C124.706 133.748 126.497 134.181 128.371 133.65C129.391 133.359 130.526 132.27 131.866 132.165C132.718 132.096 134.33 131.859 134.88 131.211C135.084 130.923 134.811 130.013 134.589 129.227C134.345 128.368 134.115 127.043 133.831 127.105C133.834 127.167 133.822 127.228 133.796 127.283C133.77 127.339 133.731 127.388 133.682 127.425C133.577 127.535 133.435 127.604 133.318 127.702C133.119 127.898 132.959 128.128 132.845 128.383C132.799 128.496 132.714 128.589 132.605 128.645C132.459 128.696 132.354 128.608 132.241 128.55C132.081 128.477 131.9 128.464 131.731 128.514C131.749 128.343 131.779 128.174 131.822 128.008C131.838 127.956 131.838 127.9 131.822 127.848C131.802 127.795 131.763 127.751 131.713 127.724C131.401 127.51 131.048 127.363 130.676 127.294Z" fill="#455A64"/>
<path d="M128.455 129.198C128.516 129.08 128.606 128.98 128.716 128.906C128.826 128.832 128.953 128.788 129.085 128.776C129.471 128.703 130.155 128.991 130.581 129.34C130.621 129.373 130.653 129.415 130.674 129.462C130.695 129.51 130.703 129.562 130.699 129.614C130.694 129.666 130.677 129.716 130.649 129.759C130.621 129.803 130.583 129.839 130.537 129.864C130.48 129.897 130.414 129.91 130.349 129.903C130.283 129.896 130.222 129.868 130.173 129.824C129.703 129.401 129.087 129.176 128.455 129.198Z" fill="#F5F5F5"/>
<path d="M127.251 129.872C127.335 129.752 127.447 129.655 127.577 129.588C127.707 129.521 127.851 129.486 127.997 129.486C128.596 129.512 129.17 129.727 129.639 130.101C129.677 130.133 129.707 130.174 129.726 130.22C129.746 130.266 129.753 130.316 129.749 130.365C129.745 130.415 129.729 130.463 129.702 130.505C129.675 130.547 129.638 130.582 129.595 130.607C129.538 130.641 129.472 130.656 129.406 130.648C129.341 130.641 129.279 130.613 129.231 130.567C128.974 130.311 128.662 130.116 128.32 129.995C127.977 129.875 127.612 129.833 127.251 129.872Z" fill="#F5F5F5"/>
<path d="M125.944 130.476C126.04 130.366 126.159 130.278 126.292 130.218C126.426 130.159 126.57 130.129 126.716 130.13C127.292 130.165 127.843 130.382 128.288 130.749C128.327 130.781 128.357 130.822 128.376 130.868C128.395 130.915 128.403 130.965 128.399 131.015C128.394 131.065 128.378 131.113 128.351 131.155C128.325 131.198 128.288 131.233 128.245 131.258C128.188 131.292 128.122 131.307 128.056 131.3C127.99 131.293 127.929 131.264 127.881 131.218C127.637 130.953 127.336 130.748 127 130.619C126.664 130.49 126.303 130.441 125.944 130.476Z" fill="#F5F5F5"/>
<path d="M145.524 86.7667C145.746 93.4898 145.76 108.05 145.76 108.05C145.83 108.887 145.902 110.372 145.964 113.386C146.055 117.754 146.266 128.539 146.266 128.539C146.266 128.539 144.181 129.518 142.262 128.721C142.262 128.721 139.598 113.557 139.052 109.233C138.575 105.458 137.661 96.6056 137.661 96.6056L136.402 107.842C136.402 107.842 136.402 110.754 136.231 113.324C136.089 115.326 134.145 125.638 134.145 125.638C132.876 125.976 131.535 125.931 130.29 125.511C130.29 125.511 130.116 109.68 130.079 107.842C130.039 105.753 130.578 83.1631 130.578 83.1631L145.524 86.7667Z" fill="#455A64"/>
<path d="M137.669 96.6056L137.188 92.7946C135.636 92.3979 134.169 91.7246 132.856 90.8071C132.856 90.8071 133.781 92.0447 136.496 93.3551L137.108 96.8131L136.416 107.842L137.669 96.6056Z" fill="#37474F"/>
<path d="M130.407 67.9006C129.424 69.1892 124.368 76.127 124.368 76.127L119.698 72.5089C118.606 71.6535 118.282 70.5324 117.597 69.757C116.913 68.9817 116.163 68.7961 115.395 68.1482C114.627 67.5002 114.332 67.0088 114.07 67.5621C113.808 68.1154 114.656 69.08 114.798 69.313C114.94 69.5459 115.817 70.1028 114.66 70.041C113.502 69.9791 111.275 68.6578 110.736 68.4139C110.197 68.17 110.183 68.8361 110.438 69.2729C110.692 69.7097 110.565 70.9255 110.863 71.7081C111.162 72.4907 111.686 72.9712 112.753 73.499C113.746 73.994 116.163 74.3034 116.949 74.7984C118.675 76.5675 121.929 79.869 122.752 80.4805C123.884 81.3213 124.979 82.0966 126.712 80.4295C128.445 78.7624 133.464 72.2213 133.464 72.2213L134.502 66.0006C132.798 65.9387 131.593 66.3464 130.407 67.9006Z" fill="#B16668"/>
<path d="M124.368 76.1269C125.009 76.6001 125.675 77.663 125.737 78.1398C125.729 77.688 125.628 77.2426 125.44 76.8317C125.253 76.4207 124.982 76.0531 124.645 75.752L124.368 76.1269Z" fill="#9A4A4D"/>
<path d="M134.902 65.8478C134.902 65.8478 132.5 65.8187 131.444 66.5576C130.389 67.2965 129.606 68.3776 127.891 70.871C126.388 73.055 125.66 74.1033 125.66 74.1033C126.644 75.559 128.077 76.6532 129.741 77.2192L134.225 71.6645L134.902 65.8478Z" fill="#37474F"/>
<path d="M139.551 65.731C140.912 65.862 142.827 65.8766 144.173 66.0149C145.109 66.4008 146.914 67.9732 146.78 69.0944C146.277 73.284 145.262 80.1527 145.262 80.1527L145.597 87.4327C143.722 89.3036 134.95 90.0353 130.429 87.0432C130.429 87.0432 130.574 73.9683 130.887 71.7552C131.444 67.7912 131.932 66.3207 133.978 65.9712C136.023 65.6218 139.551 65.731 139.551 65.731Z" fill="#F2A742"/>
<path d="M147.26 68.0061C148.242 69.2947 153.302 76.2325 153.302 76.2325L157.976 72.6144C159.068 71.7553 159.392 70.6342 160.076 69.8625C160.76 69.0908 161.51 68.9016 162.278 68.2536C163.046 67.6057 163.341 67.1143 163.603 67.664C163.865 68.2136 163.017 69.1855 162.875 69.4184C162.733 69.6514 161.856 70.2083 163.014 70.1464C164.171 70.0846 166.395 68.7596 166.937 68.5157C167.48 68.2718 167.487 68.938 167.236 69.3748C166.985 69.8116 167.105 71.031 166.81 71.8136C166.515 72.5962 165.987 73.073 164.921 73.6044C163.927 74.0995 161.51 74.4089 160.724 74.9039C158.999 76.6693 155.744 79.9744 154.922 80.5823C153.79 81.4232 152.694 82.1985 150.961 80.535C149.229 78.8715 145.269 73.6918 145.269 73.6918L143.172 66.106C144.872 66.0442 146.077 66.4518 147.26 68.0061Z" fill="#B16668"/>
<path d="M153.302 76.2326C152.662 76.7058 151.995 77.7686 151.934 78.2455C151.941 77.7931 152.041 77.347 152.229 76.9354C152.417 76.5238 152.688 76.1556 153.026 75.854L153.302 76.2326Z" fill="#9A4A4D"/>
<path d="M142.932 65.9241C142.932 65.9241 145.091 65.7894 146.226 66.6521C147.249 67.4384 148.046 68.4721 149.779 70.9655C151.282 73.1495 152.01 74.1978 152.01 74.1978C151.024 75.653 149.59 76.7469 147.926 77.3137L144.872 73.5499C143.282 71.5334 141.706 68.4648 142.932 65.9241Z" fill="#37474F"/>
<path d="M139.889 55.8741C139.896 56.7092 139.656 57.5277 139.198 58.226C138.74 58.9243 138.085 59.4711 137.316 59.7973C136.547 60.1235 135.699 60.2145 134.879 60.0586C134.058 59.9027 133.302 59.5071 132.707 58.9217C132.111 58.3363 131.703 57.5875 131.533 56.7698C131.363 55.9522 131.439 55.1026 131.752 54.3283C132.065 53.554 132.6 52.89 133.291 52.42C133.981 51.9501 134.795 51.6954 135.63 51.6881C136.185 51.6833 136.735 51.7878 137.249 51.9956C137.763 52.2034 138.231 52.5104 138.627 52.8991C139.022 53.2878 139.337 53.7506 139.554 54.2611C139.77 54.7715 139.884 55.3196 139.889 55.8741Z" fill="#263238"/>
<path d="M142.993 58.8516C142.993 58.8516 142.334 62.073 142.065 62.6008C141.886 62.9285 141.587 63.1748 141.231 63.2887L141.257 61.0246L142.993 58.8516Z" fill="#263238"/>
<path d="M142.095 54.2545C142.333 54.2239 142.576 54.2483 142.804 54.3259C143.031 54.4035 143.238 54.5323 143.409 54.7022C143.976 55.2737 143.678 57.0792 142.994 58.8518L141.705 59.012L142.095 54.2545Z" fill="#263238"/>
<path d="M141.319 59.0153C141.578 59.1682 141.942 58.6513 142.258 58.331C142.575 58.0106 143.609 57.5302 144.14 58.6185C144.672 59.7069 143.703 61.2102 142.888 61.4723C141.479 61.9309 141.257 61.0246 141.257 61.0246L141.199 66.2734C139.466 68.5412 134.592 68.3919 136.602 66.0259V64.4753C135.974 64.5805 135.337 64.6183 134.702 64.5881C133.661 64.4389 133.002 63.6235 132.674 62.5024C132.154 60.7042 131.946 59.2482 132.347 55.692C132.783 51.7972 137.308 51.7171 139.765 53.235C142.222 54.7528 141.319 59.0153 141.319 59.0153Z" fill="#B16668"/>
<path d="M141.323 59.4486C141.45 59.4486 141.938 58.626 142.258 58.3311C142.699 57.9198 142.095 54.2543 142.095 54.2543C142.246 53.929 142.295 53.5658 142.237 53.2119C142.179 52.858 142.015 52.5299 141.767 52.2705C141.152 51.6044 140.293 50.7927 137.526 51.1421C135.55 51.3933 133.406 52.0303 131.662 51.1931C131.507 51.7607 131.525 52.3617 131.713 52.9193C131.901 53.4769 132.251 53.9658 132.718 54.3235C132.718 54.3235 133.351 54.7239 135.008 54.9095C136.535 55.01 138.068 54.9673 139.587 54.7821C140.067 54.713 140.173 55.1752 140.442 56.4456C140.679 57.5558 140.886 59.445 141.323 59.4486Z" fill="#263238"/>
<path d="M142.095 54.538L143.649 53.6862C143.598 53.5811 143.527 53.4873 143.439 53.4106C143.351 53.3339 143.249 53.2759 143.138 53.2401C143.027 53.2043 142.909 53.1916 142.793 53.2026C142.677 53.2135 142.565 53.2481 142.462 53.304C142.254 53.4229 142.099 53.6175 142.031 53.8473C141.963 54.0771 141.985 54.3245 142.095 54.538Z" fill="#263238"/>
<path d="M136.591 64.4756C136.591 64.4756 138.906 63.9879 139.71 63.5511C140.185 63.299 140.572 62.9095 140.82 62.4336C140.703 62.9077 140.491 63.3534 140.198 63.744C139.612 64.5084 136.598 65.0908 136.598 65.0908L136.591 64.4756Z" fill="#9A4A4D"/>
<path d="M136.405 58.6444C136.404 58.7063 136.416 58.7679 136.439 58.8255C136.462 58.883 136.496 58.9355 136.539 58.9798C136.582 59.0242 136.634 59.0595 136.691 59.0837C136.748 59.108 136.809 59.1207 136.871 59.1212C136.968 59.1249 137.064 59.0994 137.146 59.0481C137.228 58.9969 137.293 58.9221 137.332 58.8336C137.371 58.7451 137.383 58.6469 137.366 58.5516C137.349 58.4563 137.303 58.3684 137.236 58.2991C137.168 58.2299 137.081 58.1825 136.986 58.1631C136.891 58.1437 136.793 58.1533 136.704 58.1904C136.614 58.2276 136.538 58.2907 136.485 58.3716C136.432 58.4526 136.404 58.5476 136.405 58.6444Z" fill="#263238"/>
<path d="M137.784 57.0462L136.751 56.5767C136.691 56.718 136.687 56.8772 136.742 57.0209C136.796 57.1646 136.903 57.2819 137.042 57.3483C137.11 57.3787 137.184 57.3949 137.259 57.396C137.334 57.3971 137.408 57.3832 137.477 57.355C137.547 57.3268 137.61 57.2849 137.662 57.2319C137.715 57.1788 137.757 57.1157 137.784 57.0462Z" fill="#263238"/>
<path d="M133.362 56.4746L132.463 57.1808C132.505 57.242 132.56 57.2938 132.623 57.333C132.687 57.3722 132.758 57.3978 132.831 57.4084C132.905 57.419 132.98 57.4143 133.052 57.3945C133.124 57.3748 133.191 57.3404 133.249 57.2936C133.368 57.197 133.447 57.0586 133.468 56.9064C133.489 56.7543 133.451 56.5999 133.362 56.4746Z" fill="#263238"/>
<path d="M132.82 58.5314C132.824 58.6183 132.854 58.702 132.905 58.7722C132.957 58.8424 133.028 58.8959 133.109 58.926C133.191 58.9562 133.279 58.9617 133.364 58.9419C133.449 58.9221 133.526 58.8778 133.586 58.8146C133.646 58.7513 133.686 58.6719 133.701 58.5862C133.716 58.5005 133.705 58.4122 133.67 58.3324C133.636 58.2526 133.578 58.1847 133.505 58.1373C133.432 58.0898 133.347 58.0648 133.26 58.0654C133.2 58.0669 133.142 58.0801 133.087 58.1043C133.033 58.1285 132.984 58.1633 132.943 58.2066C132.902 58.2499 132.87 58.3009 132.849 58.3567C132.828 58.4124 132.818 58.4718 132.82 58.5314Z" fill="#263238"/>
<path d="M135.229 58.1562L134.967 60.9408L133.529 60.3876L135.229 58.1562Z" fill="#9A4A4D"/>
<path d="M136.02 61.9856C136.019 62.0743 136.044 62.1612 136.093 62.2353C136.142 62.3094 136.212 62.3674 136.293 62.4018C136.375 62.4363 136.465 62.4456 136.552 62.4288C136.639 62.4119 136.72 62.3696 136.783 62.3071C136.846 62.2446 136.889 62.1649 136.906 62.0779C136.924 61.991 136.915 61.9008 136.881 61.8187C136.847 61.7367 136.79 61.6666 136.716 61.6172C136.643 61.5679 136.556 61.5415 136.467 61.5415C136.349 61.5415 136.236 61.5882 136.152 61.6713C136.068 61.7545 136.021 61.8675 136.02 61.9856Z" fill="#9A4A4D"/>
<path d="M147.384 32.3306C148.078 32.4852 148.747 32.7364 149.371 33.0768C149.968 33.3982 150.503 33.8234 150.951 34.3326C151.382 34.8259 151.7 35.4073 151.883 36.0361C152.074 36.7027 152.089 37.4076 151.926 38.0818C151.819 38.617 151.606 39.1254 151.3 39.5778C151.026 39.9671 150.696 40.3141 150.321 40.608C149.954 40.8926 149.563 41.1448 149.153 41.3614L147.995 41.973C147.646 42.1553 147.315 42.3698 147.005 42.6136C146.726 42.8257 146.511 43.112 146.386 43.4399C146.323 43.5861 146.221 43.7121 146.091 43.8039C146.029 43.8516 145.957 43.8845 145.88 43.9003C145.803 43.916 145.723 43.9142 145.647 43.8949L143.944 43.5309C143.862 43.5136 143.785 43.4803 143.716 43.4328C143.647 43.3853 143.589 43.3246 143.543 43.2542C143.496 43.1883 143.464 43.1121 143.452 43.0318C143.439 42.9515 143.446 42.8693 143.471 42.792C143.612 42.2624 143.86 41.7672 144.199 41.336C144.504 40.9554 144.856 40.6154 145.247 40.324C145.625 40.0477 146.025 39.8041 146.445 39.596C146.859 39.3886 147.245 39.1884 147.602 38.9918C147.928 38.8195 148.235 38.612 148.516 38.373C148.761 38.1666 148.931 37.8851 149 37.5722C149.063 37.2989 149.059 37.0144 148.988 36.7431C148.917 36.4718 148.781 36.2217 148.592 36.0143C148.122 35.4999 147.492 35.1578 146.805 35.0424C145.533 34.7585 144.458 35.1868 143.58 36.3273C143.496 36.4522 143.388 36.5597 143.263 36.644C143.196 36.6784 143.122 36.699 143.046 36.7047C142.971 36.7103 142.895 36.7008 142.823 36.6768L141.003 36.2727C140.939 36.2604 140.877 36.2353 140.823 36.1991C140.769 36.1628 140.722 36.1161 140.686 36.0616C140.646 36.0058 140.62 35.942 140.608 35.8746C140.596 35.8073 140.599 35.7381 140.617 35.6721C140.77 35.1127 141.057 34.5991 141.454 34.1761C141.899 33.6845 142.428 33.2754 143.016 32.9676C143.66 32.6295 144.354 32.3984 145.072 32.2833C145.838 32.1485 146.624 32.1646 147.384 32.3306ZM145.462 45.2672C145.542 45.2842 145.617 45.3176 145.684 45.3652C145.75 45.4128 145.806 45.4736 145.848 45.5438C145.892 45.6117 145.923 45.6881 145.937 45.7682C145.952 45.8483 145.95 45.9304 145.931 46.0097L145.494 47.9826C145.458 48.1401 145.361 48.2772 145.226 48.3648C145.09 48.4525 144.925 48.4838 144.766 48.4522L142.837 48.0263C142.758 48.0092 142.683 47.9763 142.616 47.9293C142.55 47.8824 142.494 47.8225 142.451 47.7533C142.406 47.6856 142.375 47.6093 142.361 47.5291C142.346 47.4489 142.349 47.3666 142.368 47.2874L142.805 45.3108C142.841 45.1534 142.938 45.0163 143.073 44.9286C143.209 44.841 143.374 44.8097 143.533 44.8413L145.462 45.2672Z" fill="#F2A742"/>
<path d="M153.105 50.8911C153.587 50.8117 154.077 50.8019 154.561 50.862C155.027 50.9148 155.479 51.0504 155.897 51.2624C156.296 51.4666 156.646 51.7546 156.924 52.1069C157.218 52.4844 157.407 52.9325 157.473 53.4063C157.549 53.775 157.549 54.1552 157.473 54.5238C157.398 54.8446 157.275 55.1525 157.109 55.4375C156.947 55.7122 156.762 55.9728 156.556 56.2164L155.97 56.908C155.794 57.1149 155.635 57.3365 155.497 57.5705C155.373 57.7785 155.31 58.0167 155.315 58.2585C155.314 58.372 155.281 58.4831 155.22 58.5788C155.192 58.6246 155.155 58.6636 155.11 58.6932C155.065 58.7228 155.015 58.7421 154.962 58.7499L153.771 58.9464C153.656 58.9645 153.539 58.9371 153.444 58.87C153.397 58.8395 153.358 58.7987 153.33 58.7507C153.301 58.7028 153.284 58.6489 153.28 58.5933C153.23 58.2203 153.259 57.8409 153.364 57.4795C153.458 57.1552 153.597 56.8453 153.775 56.5586C153.945 56.2841 154.139 56.0247 154.354 55.7833C154.569 55.543 154.761 55.3173 154.943 55.0989C155.108 54.9049 155.25 54.6937 155.369 54.4692C155.474 54.2743 155.511 54.0504 155.475 53.8322C155.445 53.6405 155.37 53.4588 155.254 53.3028C155.139 53.1468 154.987 53.0212 154.812 52.9368C154.381 52.7261 153.891 52.6671 153.422 52.7693C152.998 52.8319 152.603 53.0238 152.291 53.3189C151.98 53.6139 151.767 53.9978 151.682 54.4183C151.659 54.5209 151.617 54.6184 151.558 54.7058C151.488 54.7832 151.39 54.8302 151.285 54.8369L150.019 55.0443C149.929 55.0591 149.836 55.0397 149.76 54.9897C149.72 54.964 149.687 54.9297 149.661 54.8895C149.636 54.8492 149.62 54.8039 149.615 54.7568C149.571 54.3592 149.624 53.9568 149.771 53.5847C149.929 53.1544 150.163 52.7562 150.463 52.409C150.789 52.028 151.175 51.7022 151.606 51.4444C152.065 51.1643 152.574 50.9764 153.105 50.8911ZM155.184 59.6963C155.24 59.6869 155.297 59.6888 155.352 59.702C155.407 59.7151 155.459 59.7392 155.504 59.7727C155.55 59.8051 155.588 59.8462 155.618 59.8937C155.647 59.9412 155.667 59.9941 155.675 60.0493L155.901 61.4253C155.91 61.4811 155.908 61.5382 155.895 61.5932C155.882 61.6482 155.858 61.7 155.824 61.7456C155.792 61.7916 155.751 61.8305 155.704 61.8599C155.656 61.8893 155.603 61.9087 155.548 61.9167L154.201 62.1387C154.146 62.1478 154.089 62.1457 154.035 62.1325C153.98 62.1194 153.929 62.0955 153.884 62.0623C153.838 62.0307 153.798 61.9899 153.768 61.9422C153.738 61.8946 153.718 61.8413 153.71 61.7856L153.484 60.4061C153.467 60.2927 153.496 60.1773 153.564 60.0852C153.633 59.993 153.735 59.9317 153.848 59.9147L155.184 59.6963Z" fill="#F2A742"/>
<g opacity="0.2">
<path d="M153.105 50.8911C153.587 50.8117 154.077 50.8019 154.561 50.862C155.027 50.9148 155.479 51.0504 155.897 51.2624C156.296 51.4666 156.646 51.7546 156.924 52.1069C157.218 52.4844 157.407 52.9325 157.473 53.4063C157.549 53.775 157.549 54.1552 157.473 54.5238C157.398 54.8446 157.275 55.1525 157.109 55.4375C156.947 55.7122 156.762 55.9728 156.556 56.2164L155.97 56.908C155.794 57.1149 155.635 57.3365 155.497 57.5705C155.373 57.7785 155.31 58.0167 155.315 58.2585C155.314 58.372 155.281 58.4831 155.22 58.5788C155.192 58.6246 155.155 58.6636 155.11 58.6932C155.065 58.7228 155.015 58.7421 154.962 58.7499L153.771 58.9464C153.656 58.9645 153.539 58.9371 153.444 58.87C153.397 58.8395 153.358 58.7987 153.33 58.7507C153.301 58.7028 153.284 58.6489 153.28 58.5933C153.23 58.2203 153.259 57.8409 153.364 57.4795C153.458 57.1552 153.597 56.8453 153.775 56.5586C153.945 56.2841 154.139 56.0247 154.354 55.7833C154.569 55.543 154.761 55.3173 154.943 55.0989C155.108 54.9049 155.25 54.6937 155.369 54.4692C155.474 54.2743 155.511 54.0504 155.475 53.8322C155.445 53.6405 155.37 53.4588 155.254 53.3028C155.139 53.1468 154.987 53.0212 154.812 52.9368C154.381 52.7261 153.891 52.6671 153.422 52.7693C152.998 52.8319 152.603 53.0238 152.291 53.3189C151.98 53.6139 151.767 53.9978 151.682 54.4183C151.659 54.5209 151.617 54.6184 151.558 54.7058C151.488 54.7832 151.39 54.8302 151.285 54.8369L150.019 55.0443C149.929 55.0591 149.836 55.0397 149.76 54.9897C149.72 54.964 149.687 54.9297 149.661 54.8895C149.636 54.8492 149.62 54.8039 149.615 54.7568C149.571 54.3592 149.624 53.9568 149.771 53.5847C149.929 53.1544 150.163 52.7562 150.463 52.409C150.789 52.028 151.175 51.7022 151.606 51.4444C152.065 51.1643 152.574 50.9764 153.105 50.8911ZM155.184 59.6963C155.24 59.6869 155.297 59.6888 155.352 59.702C155.407 59.7151 155.459 59.7392 155.504 59.7727C155.55 59.8051 155.588 59.8462 155.618 59.8937C155.647 59.9412 155.667 59.9941 155.675 60.0493L155.901 61.4253C155.91 61.4811 155.908 61.5382 155.895 61.5932C155.882 61.6482 155.858 61.7 155.824 61.7456C155.792 61.7916 155.751 61.8305 155.704 61.8599C155.656 61.8893 155.603 61.9087 155.548 61.9167L154.201 62.1387C154.146 62.1478 154.089 62.1457 154.035 62.1325C153.98 62.1194 153.929 62.0955 153.884 62.0623C153.838 62.0307 153.798 61.9899 153.768 61.9422C153.738 61.8946 153.718 61.8413 153.71 61.7856L153.484 60.4061C153.467 60.2927 153.496 60.1773 153.564 60.0852C153.633 59.993 153.735 59.9317 153.848 59.9147L155.184 59.6963Z" fill="black"/>
</g>
<path d="M165.519 54.7965C165.627 54.8753 165.7 54.9933 165.722 55.1252C165.745 55.2571 165.715 55.3925 165.639 55.5027L164.678 56.8495C164.599 56.9576 164.481 57.0306 164.349 57.0531C164.217 57.0755 164.082 57.0456 163.972 56.9696L162.654 56.0341C162.6 55.9961 162.553 55.9474 162.518 55.8911C162.483 55.8348 162.46 55.772 162.45 55.7065C162.431 55.5789 162.461 55.4489 162.534 55.3425L163.495 53.9921C163.573 53.8835 163.69 53.8102 163.822 53.7882C163.95 53.769 164.081 53.8003 164.186 53.8756L165.519 54.7965ZM171.08 45.6637C171.556 45.999 171.98 46.4011 172.34 46.8577C172.688 47.2921 172.955 47.7852 173.13 48.3137C173.297 48.8187 173.353 49.3539 173.294 49.8825C173.225 50.4454 173.012 50.981 172.675 51.4368C172.423 51.8053 172.102 52.1208 171.728 52.365C171.396 52.5711 171.036 52.7269 170.658 52.8273C170.292 52.925 169.918 52.9907 169.541 53.0238L168.471 53.1148C168.151 53.1442 167.834 53.2002 167.524 53.2823C167.247 53.3556 166.995 53.5043 166.796 53.7118C166.701 53.8047 166.583 53.8711 166.454 53.9047C166.391 53.9195 166.326 53.9204 166.263 53.9072C166.201 53.894 166.141 53.867 166.09 53.8283L164.925 53.002C164.814 52.922 164.738 52.8019 164.714 52.6671C164.7 52.6035 164.701 52.5376 164.717 52.4744C164.733 52.4113 164.763 52.3527 164.805 52.3031C165.076 51.9479 165.417 51.6519 165.806 51.4331C166.157 51.241 166.531 51.0965 166.92 51.0036C167.293 50.9135 167.673 50.855 168.056 50.8289C168.42 50.8071 168.784 50.7779 169.118 50.7452C169.419 50.7193 169.716 50.6594 170.003 50.5668C170.253 50.4906 170.471 50.3331 170.622 50.1191C170.757 49.9337 170.845 49.7181 170.878 49.491C170.911 49.2639 170.888 49.0322 170.811 48.816C170.621 48.2795 170.257 47.8221 169.777 47.5165C168.911 46.8977 167.965 46.8771 166.938 47.4546C166.835 47.5208 166.72 47.5676 166.6 47.5929C166.537 47.5974 166.474 47.5894 166.415 47.5694C166.356 47.5494 166.301 47.5178 166.254 47.4765L165.016 46.5956C164.926 46.5343 164.863 46.4403 164.841 46.3335C164.831 46.2789 164.832 46.2227 164.845 46.1686C164.859 46.1146 164.883 46.064 164.918 46.0205C165.206 45.6481 165.581 45.352 166.01 45.1578C166.502 44.93 167.031 44.7908 167.571 44.7465C168.164 44.6982 168.76 44.7449 169.337 44.8848C169.964 45.0263 170.557 45.2911 171.08 45.6637Z" fill="#F2A742"/>
<g opacity="0.6">
<path d="M165.519 54.7965C165.627 54.8753 165.7 54.9933 165.722 55.1252C165.745 55.2571 165.715 55.3925 165.639 55.5027L164.678 56.8495C164.599 56.9576 164.481 57.0306 164.349 57.0531C164.217 57.0755 164.082 57.0456 163.972 56.9696L162.654 56.0341C162.6 55.9961 162.553 55.9474 162.518 55.8911C162.483 55.8348 162.46 55.772 162.45 55.7065C162.431 55.5789 162.461 55.4489 162.534 55.3425L163.495 53.9921C163.573 53.8835 163.69 53.8102 163.822 53.7882C163.95 53.769 164.081 53.8003 164.186 53.8756L165.519 54.7965ZM171.08 45.6637C171.556 45.999 171.98 46.4011 172.34 46.8577C172.688 47.2921 172.955 47.7852 173.13 48.3137C173.297 48.8187 173.353 49.3539 173.294 49.8825C173.225 50.4454 173.012 50.981 172.675 51.4368C172.423 51.8053 172.102 52.1208 171.728 52.365C171.396 52.5711 171.036 52.7269 170.658 52.8273C170.292 52.925 169.918 52.9907 169.541 53.0238L168.471 53.1148C168.151 53.1442 167.834 53.2002 167.524 53.2823C167.247 53.3556 166.995 53.5043 166.796 53.7118C166.701 53.8047 166.583 53.8711 166.454 53.9047C166.391 53.9195 166.326 53.9204 166.263 53.9072C166.201 53.894 166.141 53.867 166.09 53.8283L164.925 53.002C164.814 52.922 164.738 52.8019 164.714 52.6671C164.7 52.6035 164.701 52.5376 164.717 52.4744C164.733 52.4113 164.763 52.3527 164.805 52.3031C165.076 51.9479 165.417 51.6519 165.806 51.4331C166.157 51.241 166.531 51.0965 166.92 51.0036C167.293 50.9135 167.673 50.855 168.056 50.8289C168.42 50.8071 168.784 50.7779 169.118 50.7452C169.419 50.7193 169.716 50.6594 170.003 50.5668C170.253 50.4906 170.471 50.3331 170.622 50.1191C170.757 49.9337 170.845 49.7181 170.878 49.491C170.911 49.2639 170.888 49.0322 170.811 48.816C170.621 48.2795 170.257 47.8221 169.777 47.5165C168.911 46.8977 167.965 46.8771 166.938 47.4546C166.835 47.5208 166.72 47.5676 166.6 47.5929C166.537 47.5974 166.474 47.5894 166.415 47.5694C166.356 47.5494 166.301 47.5178 166.254 47.4765L165.016 46.5956C164.926 46.5343 164.863 46.4403 164.841 46.3335C164.831 46.2789 164.832 46.2227 164.845 46.1686C164.859 46.1146 164.883 46.064 164.918 46.0205C165.206 45.6481 165.581 45.352 166.01 45.1578C166.502 44.93 167.031 44.7908 167.571 44.7465C168.164 44.6982 168.76 44.7449 169.337 44.8848C169.964 45.0263 170.557 45.2911 171.08 45.6637Z" fill="white"/>
</g>
<path d="M48.2225 126.861C48.1861 125.769 48.9723 115.097 48.9723 115.097L43.7744 118.868C44.8409 125.23 45.0703 126.734 45.0885 127.775C45.0665 127.862 45.0567 127.951 45.0593 128.041C45.0593 129.278 46.4607 129.944 47.5491 130.771C48.4741 131.494 49.4593 132.137 50.4939 132.692C51.2837 133.089 52.8926 133.126 53.0892 132.616C51.7642 131.604 49.8387 130.09 48.7831 128.936C48.2807 128.383 48.2625 127.946 48.2225 126.861Z" fill="#FFA8A7"/>
<path d="M55.3501 133.952C55.4091 134.122 55.4195 134.305 55.3803 134.48C55.3411 134.656 55.2538 134.817 55.1281 134.946C54.1735 135.634 52.9853 135.917 51.823 135.732C50.1704 135.517 49.275 135.048 48.6161 134.494C47.9573 133.941 47.0291 133.162 46.2793 132.998C45.6832 132.885 45.1161 132.652 44.6121 132.314C44.3901 132.099 44.4192 131.146 44.4192 131.146L55.3501 133.952Z" fill="#263238"/>
<path d="M45.0782 127.473C45.017 127.474 44.9583 127.498 44.9125 127.538C44.8666 127.579 44.8364 127.634 44.827 127.695C44.7761 127.957 44.7215 128.721 44.6123 129.151C44.4433 129.91 44.3893 130.69 44.4521 131.466C44.5431 131.957 45.6715 132.296 46.3959 132.558C47.2477 132.929 48.0382 133.427 48.74 134.036C49.7529 134.793 50.9619 135.244 52.2235 135.335C53.4975 135.335 54.9317 134.913 55.2629 134.323C55.6669 133.595 55.3503 133.169 53.4611 132.292C53.0971 132.128 51.8486 131.382 51.4191 131.113C50.2615 130.385 49.1149 129.369 48.5799 128.081C48.5367 127.923 48.4419 127.785 48.3105 127.687C48.1958 127.638 48.0687 127.625 47.9465 127.651C47.631 127.697 47.3242 127.79 47.0365 127.928C46.7853 128.048 46.425 128.19 46.4286 128.514C46.4364 128.626 46.4609 128.736 46.5014 128.841C46.5233 128.91 46.5415 128.998 46.5014 129.038C46.4614 129.078 46.374 129.038 46.3231 128.987C46.1378 128.797 45.9686 128.593 45.8171 128.375C45.7276 128.264 45.6263 128.163 45.515 128.073C45.4036 128.01 45.2966 127.94 45.1947 127.862C45.0563 127.764 45.0855 127.626 45.0782 127.473Z" fill="#455A64"/>
<path d="M48.7401 134.054C48.4088 133.785 48.0594 133.519 47.71 133.286C47.71 133.286 49.9304 134.637 50.8258 134.014C50.992 133.909 51.1135 133.746 51.1673 133.556C51.221 133.367 51.2031 133.165 51.117 132.988C51.117 132.835 52.5293 132.176 53.0899 132.11C53.2464 132.198 53.3774 132.267 53.4539 132.303C55.343 133.181 55.6597 133.603 55.2557 134.334C54.9244 134.924 53.887 135.386 52.2418 135.386C51.1716 135.408 49.5045 134.68 48.7401 134.054Z" fill="#37474F"/>
<path d="M50.9606 132.547C52.1363 133.016 51.6339 133.235 51.3063 133.275C50.9787 133.315 49.0022 132.183 47.7938 131.215C46.5853 130.246 45.7444 129.129 45.2785 128.765C45.1038 128.63 44.9145 128.463 44.7471 128.306C44.7798 128.048 44.8053 127.811 44.8272 127.687C44.8365 127.627 44.8667 127.572 44.9126 127.531C44.9585 127.49 45.0171 127.467 45.0783 127.465C45.0783 127.618 45.0565 127.76 45.1729 127.873C45.2749 127.95 45.3819 128.021 45.4933 128.084C45.6046 128.174 45.7059 128.275 45.7954 128.386C45.9469 128.604 46.1161 128.808 46.3013 128.998C47.6112 130.47 49.1933 131.675 50.9606 132.547Z" fill="#263238"/>
<path d="M51.2217 133.111C51.1948 133.11 51.1691 133.1 51.1489 133.082C51.1371 133.073 51.1272 133.061 51.1199 133.048C51.1125 133.035 51.1079 133.021 51.1062 133.006C51.1045 132.991 51.1058 132.976 51.11 132.961C51.1142 132.947 51.1213 132.933 51.1307 132.922C51.4076 132.634 51.7429 132.409 52.114 132.262C52.4851 132.116 52.8834 132.05 53.282 132.07C53.3132 132.074 53.3418 132.089 53.3615 132.114C53.3813 132.138 53.3906 132.17 53.3875 132.201C53.3839 132.231 53.3685 132.259 53.3447 132.278C53.3208 132.297 53.2905 132.306 53.2601 132.303C52.9002 132.288 52.5412 132.348 52.2059 132.48C51.8706 132.611 51.5664 132.812 51.3127 133.067C51.3016 133.081 51.2878 133.092 51.272 133.099C51.2563 133.107 51.2392 133.111 51.2217 133.111Z" fill="#F5F5F5"/>
<path d="M50.1995 132.496C50.1718 132.497 50.1445 132.488 50.1231 132.471C50.1023 132.448 50.0908 132.419 50.0908 132.389C50.0908 132.358 50.1023 132.329 50.1231 132.307C50.4005 132.02 50.736 131.796 51.107 131.65C51.478 131.504 51.876 131.439 52.2743 131.459C52.3052 131.462 52.3335 131.478 52.3529 131.502C52.3724 131.526 52.3814 131.557 52.3781 131.588C52.3747 131.619 52.3592 131.647 52.3349 131.666C52.3107 131.686 52.2797 131.695 52.2488 131.692C51.8888 131.676 51.5295 131.736 51.1941 131.867C50.8586 131.999 50.5545 132.199 50.3014 132.456C50.289 132.47 50.2732 132.482 50.2555 132.489C50.2377 132.496 50.2185 132.498 50.1995 132.496Z" fill="#F5F5F5"/>
<path d="M49.1729 131.881C49.1464 131.881 49.1206 131.872 49.1001 131.855C49.0785 131.833 49.0664 131.804 49.0664 131.773C49.0664 131.743 49.0785 131.713 49.1001 131.691C49.3777 131.405 49.7132 131.181 50.0841 131.035C50.4551 130.889 50.853 130.824 51.2513 130.843C51.2666 130.845 51.2815 130.849 51.2951 130.856C51.3088 130.863 51.3208 130.873 51.3306 130.885C51.3404 130.897 51.3478 130.911 51.3523 130.925C51.3568 130.94 51.3584 130.955 51.3569 130.971C51.3555 130.986 51.3511 131.001 51.3439 131.015C51.3368 131.028 51.327 131.04 51.3152 131.05C51.3033 131.06 51.2896 131.067 51.2749 131.072C51.2602 131.076 51.2448 131.078 51.2295 131.076C50.8695 131.06 50.5101 131.12 50.1747 131.252C49.8393 131.384 49.5352 131.584 49.2821 131.841C49.2685 131.856 49.2515 131.867 49.2325 131.874C49.2134 131.881 49.1929 131.883 49.1729 131.881Z" fill="#F5F5F5"/>
<path d="M48.2233 131.2C48.1967 131.201 48.171 131.192 48.1505 131.175C48.1393 131.164 48.1305 131.152 48.1244 131.137C48.1184 131.123 48.1152 131.108 48.1152 131.093C48.1152 131.078 48.1184 131.062 48.1244 131.048C48.1305 131.034 48.1393 131.022 48.1505 131.011C48.4276 130.724 48.7631 130.5 49.1341 130.354C49.5052 130.207 49.9033 130.142 50.3017 130.163C50.332 130.167 50.3596 130.182 50.3787 130.206C50.3977 130.23 50.4067 130.26 50.4036 130.29C50.4 130.321 50.3846 130.348 50.3607 130.367C50.3369 130.386 50.3066 130.395 50.2762 130.392C49.9164 130.378 49.5575 130.439 49.2223 130.57C48.8871 130.702 48.5829 130.901 48.3288 131.157C48.3165 131.172 48.3002 131.185 48.2818 131.192C48.2633 131.2 48.2431 131.203 48.2233 131.2Z" fill="#F5F5F5"/>
<path d="M47.2949 130.52C47.2687 130.519 47.2434 130.51 47.2221 130.494C47.2006 130.472 47.1885 130.443 47.1885 130.412C47.1885 130.382 47.2006 130.352 47.2221 130.33C47.5223 130.018 47.8898 129.778 48.2967 129.629C48.7035 129.481 49.139 129.426 49.5699 129.471C49.5853 129.472 49.6004 129.476 49.6141 129.483C49.6278 129.49 49.6398 129.5 49.6495 129.512C49.6591 129.524 49.6661 129.538 49.6699 129.553C49.6738 129.568 49.6744 129.584 49.6719 129.599C49.6682 129.629 49.6528 129.657 49.629 129.676C49.6052 129.695 49.5748 129.704 49.5445 129.701C49.1528 129.662 48.7574 129.711 48.3871 129.845C48.0169 129.978 47.681 130.193 47.4041 130.472C47.3914 130.489 47.3747 130.502 47.3556 130.51C47.3365 130.518 47.3156 130.522 47.2949 130.52Z" fill="#F5F5F5"/>
<path d="M38.4308 119.956L33.1855 119.861C33.262 123.363 33.8189 127.247 33.9135 130.53C33.9135 131.149 33.9135 135.335 34.1319 136.609C34.4959 138.52 36.7527 138.262 36.8729 137.119C36.993 135.976 36.7273 131.087 36.7345 130.567C36.7127 128.463 37.6991 124.906 38.2197 121.124C38.2415 120.953 38.4053 120.138 38.4308 119.956Z" fill="#FFA8A7"/>
<path d="M37.7249 137.912C37.8223 138.788 37.6971 139.675 37.3609 140.489C37.1944 140.813 36.9258 141.073 36.5967 141.228C36.2676 141.383 35.8965 141.426 35.5409 141.349C34.7656 141.236 33.7427 140.821 33.4297 139.893C33.1333 139.038 33.0289 138.128 33.1239 137.228L37.7249 137.912Z" fill="#263238"/>
<path d="M33.8995 130.13C33.5901 130.184 33.6483 131.695 33.6192 133.213C33.5864 134.844 33.1751 135.557 33.1351 136.893C33.0877 138.422 33.237 139.077 33.8631 139.943C34.4891 140.81 36.4438 141.509 37.2337 140.111C37.878 138.971 37.7906 137.788 37.5686 136.289C37.3465 134.789 37.1718 133.653 37.1136 132.467C37.0553 131.28 37.0299 130.228 36.7496 130.13C36.7496 130.297 36.7496 130.512 36.7496 130.676C36.7496 130.84 36.7751 131.404 36.6003 131.44C36.5734 131.3 36.5576 131.157 36.553 131.014C36.5611 130.882 36.5181 130.752 36.4329 130.65C36.3276 130.573 36.1997 130.532 36.0689 130.534C35.7571 130.499 35.4435 130.482 35.1298 130.483C34.9733 130.483 34.8131 130.483 34.6602 130.508C34.5257 130.519 34.394 130.552 34.2707 130.607C34.2344 130.622 34.2018 130.645 34.1748 130.674C34.1479 130.703 34.1272 130.737 34.1142 130.774C34.1033 130.832 34.1033 130.891 34.1142 130.949C34.127 131.053 34.127 131.158 34.1142 131.262C34.1142 131.309 34.0815 131.367 34.0341 131.36C33.9868 131.353 33.9795 131.309 33.9759 131.273C33.9541 131.091 33.9759 130.956 33.9541 130.745C33.9541 130.647 33.9541 130.512 33.9541 130.414C33.9541 130.316 33.9031 130.228 33.8995 130.13Z" fill="#455A64"/>
<path d="M33.1603 136.456C33.1603 136.678 33.1129 138.138 33.5243 138.356C33.9356 138.575 34.0957 137.439 34.0957 137.439C34.0957 137.439 35.0603 137.035 36.5746 137.523C36.5236 137.763 36.8221 138.513 37.2043 138.309C37.5865 138.105 37.5683 136.442 37.5683 136.42C37.7758 137.876 37.8413 139.004 37.2043 140.111C36.4144 141.509 34.4525 140.802 33.8337 139.943C33.2149 139.084 33.0656 138.422 33.1057 136.893C33.1239 136.74 33.1493 136.598 33.1603 136.456Z" fill="#37474F"/>
<path d="M34.2159 137.523C34.2632 138.069 33.7099 137.941 33.608 137.159C33.5061 136.376 33.7463 134.523 33.608 133.198C33.6371 131.68 33.5789 130.17 33.8883 130.115C33.8865 130.133 33.8865 130.152 33.8883 130.17L33.9247 130.938C33.9175 131.047 33.9175 131.156 33.9247 131.265C34.0266 132.379 34.0885 134.541 34.0921 135.568C34.0986 136.221 34.1399 136.874 34.2159 137.523Z" fill="#263238"/>
<path d="M36.4002 137.523C36.4715 136.878 36.5068 136.231 36.5058 135.583C36.5058 134.563 36.5713 132.427 36.6732 131.306C36.7127 131.098 36.7285 130.887 36.7205 130.676C36.7205 130.523 36.7205 130.312 36.7205 130.166C36.7205 130.166 36.7205 130.144 36.7205 130.13C36.9244 130.206 36.9972 130.807 37.0409 131.564C37.0409 132.004 37.0409 132.55 37.0008 133.213C36.8625 134.538 37.1027 136.416 37.0008 137.184C36.8989 137.952 36.3638 138.069 36.4002 137.523Z" fill="#263238"/>
<path d="M36.615 137.563H36.575C35.7885 137.291 34.9336 137.291 34.1471 137.563C34.1327 137.568 34.1175 137.571 34.1021 137.57C34.0868 137.57 34.0716 137.567 34.0576 137.56C34.0436 137.554 34.0309 137.545 34.0204 137.534C34.0098 137.523 34.0015 137.51 33.996 137.495C33.9905 137.481 33.9879 137.466 33.9883 137.45C33.9887 137.435 33.9922 137.42 33.9984 137.406C34.0047 137.392 34.0136 137.379 34.0248 137.369C34.0359 137.358 34.049 137.35 34.0634 137.344C34.9025 137.045 35.8195 137.045 36.6587 137.344C36.673 137.35 36.6861 137.358 36.6972 137.368C36.7083 137.379 36.7172 137.391 36.7233 137.405C36.7294 137.419 36.7327 137.434 36.7328 137.449C36.733 137.464 36.73 137.48 36.7242 137.494C36.7153 137.515 36.7 137.533 36.6805 137.545C36.661 137.558 36.6381 137.564 36.615 137.563Z" fill="#F5F5F5"/>
<path d="M36.7638 136.355C36.7506 136.358 36.7369 136.358 36.7238 136.355C35.8394 136.08 34.8926 136.08 34.0083 136.355C33.9937 136.36 33.9783 136.362 33.9629 136.361C33.9474 136.36 33.9323 136.356 33.9184 136.349C33.9046 136.343 33.8922 136.333 33.882 136.322C33.8718 136.31 33.864 136.296 33.8591 136.282C33.854 136.268 33.8518 136.252 33.8527 136.237C33.8537 136.222 33.8577 136.207 33.8645 136.194C33.8712 136.18 33.8807 136.168 33.8923 136.158C33.9039 136.148 33.9174 136.141 33.9319 136.136C34.8661 135.839 35.8696 135.839 36.8038 136.136C36.8294 136.146 36.8508 136.164 36.8644 136.188C36.8779 136.211 36.8828 136.239 36.878 136.266C36.8732 136.293 36.8592 136.317 36.8383 136.335C36.8174 136.352 36.7911 136.362 36.7638 136.362V136.355Z" fill="#F5F5F5"/>
<path d="M33.9611 135.211C33.9389 135.211 33.9172 135.204 33.8985 135.192C33.8799 135.18 33.865 135.162 33.8556 135.142C33.8432 135.114 33.8424 135.082 33.8533 135.054C33.8642 135.025 33.886 135.002 33.9138 134.989C34.8333 134.628 35.8545 134.621 36.7785 134.971C36.7928 134.976 36.8059 134.984 36.817 134.995C36.8281 135.005 36.837 135.018 36.8431 135.032C36.8492 135.046 36.8525 135.061 36.8526 135.076C36.8528 135.091 36.8498 135.106 36.844 135.12C36.8326 135.149 36.8107 135.171 36.7828 135.184C36.7549 135.196 36.7233 135.197 36.6948 135.186C36.6948 135.186 35.2679 134.625 34.0121 135.186C33.9972 135.198 33.9798 135.207 33.9611 135.211Z" fill="#F5F5F5"/>
<path d="M33.9354 134.141C33.9134 134.141 33.8918 134.135 33.8732 134.124C33.8545 134.112 33.8395 134.095 33.8298 134.076C33.8173 134.048 33.8159 134.017 33.8261 133.988C33.8363 133.96 33.8572 133.936 33.8844 133.923C34.3408 133.715 34.8355 133.605 35.337 133.599C35.8384 133.593 36.3355 133.692 36.7964 133.89C36.8102 133.896 36.8226 133.905 36.8329 133.916C36.8432 133.928 36.8511 133.941 36.8562 133.955C36.8613 133.969 36.8635 133.984 36.8626 133.999C36.8617 134.015 36.8578 134.029 36.851 134.043C36.8448 134.057 36.8358 134.069 36.8247 134.079C36.8136 134.09 36.8005 134.098 36.7862 134.103C36.7719 134.108 36.7568 134.11 36.7417 134.109C36.7265 134.108 36.7117 134.104 36.6982 134.098C36.2657 133.918 35.8015 133.829 35.3334 133.835C34.8654 133.84 34.4034 133.941 33.9754 134.13C33.9628 134.136 33.9493 134.14 33.9354 134.141Z" fill="#F5F5F5"/>
<path d="M33.9102 132.944C33.8836 132.944 33.8576 132.936 33.8366 132.919C33.8156 132.903 33.8009 132.879 33.7949 132.853C33.789 132.827 33.7921 132.8 33.8038 132.776C33.8155 132.752 33.8351 132.733 33.8593 132.722C35.2461 132.038 36.7421 132.693 36.804 132.722C36.8185 132.727 36.8316 132.736 36.8426 132.747C36.8536 132.758 36.8621 132.771 36.8676 132.785C36.8731 132.8 36.8755 132.815 36.8745 132.831C36.8736 132.846 36.8694 132.861 36.8623 132.875C36.8495 132.903 36.8264 132.924 36.7978 132.935C36.7692 132.946 36.7374 132.945 36.7094 132.933C36.7094 132.933 35.2534 132.296 33.9648 132.933C33.948 132.942 33.9291 132.945 33.9102 132.944Z" fill="#F5F5F5"/>
<path d="M34.9116 85.9038C33.0625 91.0253 33.3864 94.2394 33.7031 99.6084C33.9943 104.53 34.4566 108.865 34.4566 108.865C34.3838 109.739 33.168 111.442 33.0006 115.3C32.9469 118.017 33.0685 120.735 33.3646 123.436C33.3646 123.436 35.7852 124.32 37.8309 123.436C37.8309 123.436 39.9239 114.194 40.4954 109.677C40.9904 105.735 41.8567 100.697 41.8567 100.697L43.6767 109.658C43.321 110.863 43.1384 112.112 43.1344 113.368C43.1344 115.475 44.1135 121.336 44.1135 121.336C44.1135 121.336 46.8253 122.213 48.5434 120.688C48.5434 120.688 49.2241 112.254 49.4643 109.04C49.7846 104.752 49.3187 92.9982 48.2886 86.9813L34.9116 85.9038Z" fill="#455A64"/>
<path d="M41.8779 100.682L42.635 93.9409C42.635 93.9409 46.0239 93.4895 47.56 92.0444C47.1193 92.7336 46.532 93.3171 45.8398 93.7531C45.1477 94.1891 44.3679 94.467 43.556 94.567L42.464 100.842L43.7016 109.644L41.8779 100.682Z" fill="#37474F"/>
<path d="M50.2573 80.9064C48.6084 79.2101 45.6309 75.3736 45.6309 75.3736L43.9492 69.5496C44.3251 69.5691 44.7017 69.5691 45.0776 69.5496C46.8976 69.6697 47.4327 69.8262 48.5647 71.0638C49.4638 72.0502 52.8927 76.7313 54.083 78.3074L57.2461 74.2779C58.0069 73.1313 57.8831 71.8464 58.2763 70.9109C58.6694 69.9754 59.3064 69.5641 59.816 68.7269C60.3256 67.8897 60.4457 67.3292 60.8643 67.7623C61.2829 68.1955 60.7988 69.3603 60.7369 69.626C60.675 69.8917 60.0344 70.6816 61.1009 70.2703C62.1674 69.859 63.8127 67.9116 64.2349 67.5148C64.6572 67.118 64.8829 67.7332 64.7882 68.221C64.6936 68.7087 65.1522 69.808 64.9848 70.6124C64.8806 71.4216 64.4782 72.1627 63.8564 72.6909C63.0883 73.4626 61.2101 74.4126 60.4748 75.4282C59.7395 76.4437 58.1707 79.5996 57.1988 81.4997C55.9794 83.9166 54.942 84.7138 53.5588 83.8984C52.1756 83.0831 50.8652 81.5361 50.2573 80.9064Z" fill="#FFA8A7"/>
<path d="M44.4847 69.4874C45.4154 69.3944 46.355 69.519 47.2293 69.8514C48.2157 70.2955 48.8855 71.2492 49.8501 72.5414C50.8147 73.8336 52.5364 76.094 52.5364 76.094C52.5364 76.094 52.0705 78.056 48.9983 79.8177L43.9824 74.6526L44.4847 69.4874Z" fill="#37474F"/>
<path d="M54.0831 78.3037C53.4831 78.8697 53.0811 79.6138 52.9365 80.4258C52.9365 80.4258 52.5725 79.2574 53.8137 77.9434L54.0831 78.3037Z" fill="#F28F8F"/>
<path d="M48.1171 79.8288C50.3557 77.987 49.6168 75.5882 48.8014 73.9721C47.167 70.7434 45.4672 69.473 44.7574 69.484L40.3056 69.5276C38.1799 69.8188 36.5346 69.6732 36.0214 69.7934C34.711 70.1028 34.6818 71.1802 34.6309 72.5743C34.5763 74.1031 33.7937 73.8447 34.1904 76.3708C34.6584 77.3098 35.0693 78.2762 35.4208 79.2646C35.661 80.1382 36.338 81.5287 35.9777 82.941C35.8394 83.487 35.4681 84.033 34.9112 85.5291C34.2797 87.2107 33.8104 88.9488 33.5098 90.7197C33.5098 90.7197 34.8092 90.4176 36.2871 88.8451C36.2871 88.8451 38.3073 91.5496 43.1667 91.2766C48.2081 90.9927 48.6522 88.3646 48.6522 88.3646L47.8805 83.6326C47.997 81.7216 48.0479 81.03 48.1171 79.8288Z" fill="#F2A742"/>
<path opacity="0.1" d="M45.2092 79.3519C45.2092 79.3519 43.3892 80.8079 41.2525 80.109C40.6573 79.9306 40.1177 79.6028 39.685 79.1567C39.2524 78.7107 38.9411 78.1614 38.7809 77.561C38.7809 77.561 38.5989 79.9816 41.2852 80.7606C42.0038 80.9786 42.7735 80.9593 43.4803 80.7055C44.187 80.4518 44.7933 79.9772 45.2092 79.3519Z" fill="black"/>
<path d="M32.4652 67.4056C31.8063 66.9251 28.2573 71.6753 29.9172 72.8656C31.577 74.0559 33.3461 70.6816 32.9893 69.0873C32.6326 67.493 32.4652 67.4056 32.4652 67.4056Z" fill="#37474F"/>
<path d="M29.2438 65.0468C30.132 63.8165 30.7362 62.8883 31.5479 61.8327C32.0066 61.2321 32.3014 60.8062 32.7419 60.191C33.0476 59.7688 33.226 59.4121 33.5681 59.2774C33.9501 59.1093 34.2915 58.861 34.5691 58.5494C34.7392 58.3524 34.896 58.1445 35.0387 57.927C35.5518 57.2165 36.1648 56.5839 36.8587 56.0487C37.5867 55.4845 38.3839 55.0477 39.1264 54.509C39.5669 54.1887 40.0401 53.6609 39.4904 53.184C39.3196 53.0461 39.1168 52.9535 38.9008 52.9147C37.5758 52.649 36.4292 53.1258 35.1406 53.4789C34.5803 53.6316 34.0327 53.8276 33.5026 54.0649C33.2395 54.1717 32.994 54.3178 32.7746 54.4981C32.4698 54.8166 32.2234 55.1862 32.0466 55.5901C31.4824 56.6275 30.2921 57.552 29.4586 58.3638C28.4794 59.3174 27.6058 60.1838 26.4883 61.243C25.4837 62.1894 24.4973 63.063 23.5763 64.0968C22.8156 64.9485 23.1104 65.6037 23.2123 65.8258C23.8675 67.1143 24.581 67.5693 25.44 68.3738C25.7239 68.6358 26.0115 68.8943 26.2991 69.1527C27.4129 70.1574 28.5268 71.0965 29.6843 72.0647C30.9219 73.0839 31.4315 73.579 32.5344 74.569C33.2304 75.2083 33.8104 75.9632 34.2488 76.8004C36.1598 77.117 38.0381 74.1941 36.4001 70.7762C36.1307 70.2234 35.7232 69.7495 35.2171 69.4002C33.2005 67.9624 29.2438 65.0468 29.2438 65.0468Z" fill="#FFA8A7"/>
<path d="M29.2443 65.0469C28.6481 65.8038 27.8471 66.3736 26.9365 66.6885C26.9365 66.6885 28.1559 66.9797 29.7939 65.4546L29.2443 65.0469Z" fill="#F28F8F"/>
<path d="M36.1742 69.764C35.7265 69.4546 34.6382 68.7958 32.4651 67.4053C32.4651 67.4053 32.8 68.1078 32.2722 69.8732C31.7444 71.6386 30.6305 72.7561 29.9316 72.8835C29.9316 72.8835 31.1474 73.8444 32.2685 74.9292C33.3896 76.0139 34.3106 76.7819 34.9585 78.0414C34.9585 78.0414 36.5601 77.63 36.9241 74.9146C37.1789 73.0109 37.026 70.7759 36.1742 69.764Z" fill="#455A64"/>
<path d="M48.3317 61.021C48.6517 60.3447 48.7926 59.5976 48.741 58.8512C48.6893 58.1049 48.4469 57.3843 48.0368 56.7585C46.6573 54.7966 44.3313 53.8465 41.7615 53.8756H40.9643C37.4954 53.9339 34.3431 56.9114 34.2813 60.2639C34.2813 62.6226 34.2812 64.8029 35.5807 66.4118C36.7783 67.9079 38.6456 68.3993 40.2217 68.6395C43.2357 69.0981 46.6209 68.7487 47.9895 66.6957C47.9895 66.6957 46.1695 67.0597 46.3988 65.1742C46.4316 64.8757 46.1477 64.5481 45.649 64.2096C45.9983 63.6045 46.4094 63.0373 46.8757 62.517C47.3889 62.0038 47.9822 61.7162 48.3317 61.021Z" fill="#263238"/>
<path d="M47.4327 62.7425C47.4145 66.2551 46.2897 67.1396 45.7255 67.4017C45.1613 67.6638 44.0548 67.5254 42.9809 67.3689L43.0173 69.4765C43.0173 69.4765 44.2731 70.7468 44.2003 71.7151C44.1275 72.6833 42.2784 72.8071 40.877 71.9007C40.1051 71.3895 39.4048 70.7774 38.7949 70.0807C38.6786 69.9459 38.6129 69.7747 38.6093 69.5966L38.5219 64.6426C38.5219 64.6426 37.9468 65.2723 36.8985 64.5807C36.672 64.4423 36.4768 64.2582 36.3253 64.0404C36.1737 63.8225 36.0691 63.5754 36.0181 63.3149C35.9671 63.0545 35.9708 62.7862 36.029 62.5273C36.0872 62.2683 36.1986 62.0243 36.3561 61.8106C36.5042 61.6666 36.6821 61.5569 36.8772 61.4891C37.0724 61.4213 37.28 61.3972 37.4854 61.4183C37.6909 61.4395 37.8892 61.5055 38.0664 61.6116C38.2436 61.7178 38.3954 61.8615 38.511 62.0327C38.8314 62.6296 38.8022 63.0519 39.239 62.9827C39.6758 62.9136 39.694 62.4404 39.7231 62.1018C39.7523 61.7633 39.7231 61.6541 39.7668 61.21C40.8042 60.988 41.878 59.5429 41.9981 58.4873C42.7009 58.833 43.4755 59.0076 44.2586 58.9969C45.4197 58.9168 46.0203 58.6839 46.5918 57.8467C46.728 58.0382 46.837 58.2477 46.9158 58.4691C47.0775 58.9174 47.1993 59.379 47.2798 59.8487C47.4094 60.8075 47.4606 61.7753 47.4327 62.7425Z" fill="#FFA8A7"/>
<path d="M42.9815 67.3693C41.8495 67.2382 39.5163 66.6121 39.1377 65.7021C39.2907 66.1641 39.5816 66.5681 39.9713 66.8597C40.6774 67.4421 42.9925 68.0718 42.9925 68.0718L42.9815 67.3693Z" fill="#F28F8F"/>
<path d="M44.1207 65.4763C44.1229 65.5679 44.0978 65.658 44.0486 65.7353C43.9995 65.8125 43.9285 65.8735 43.8447 65.9103C43.7608 65.9472 43.668 65.9584 43.5778 65.9423C43.4876 65.9263 43.4042 65.8839 43.3382 65.8205C43.2722 65.757 43.2265 65.6754 43.207 65.5859C43.1874 65.4964 43.1949 65.4032 43.2284 65.3179C43.2619 65.2327 43.32 65.1594 43.3953 65.1072C43.4705 65.0551 43.5596 65.0264 43.6512 65.025C43.7732 65.023 43.891 65.0694 43.9789 65.1539C44.0669 65.2385 44.1179 65.3544 44.1207 65.4763Z" fill="#B16668"/>
<path d="M43.5268 62.0185C43.5328 62.0831 43.526 62.1482 43.5067 62.2101C43.4874 62.272 43.456 62.3295 43.4144 62.3793C43.3728 62.429 43.3217 62.47 43.2642 62.4999C43.2066 62.5298 43.1437 62.5481 43.0791 62.5536C42.9796 62.5642 42.8791 62.5448 42.7906 62.498C42.7022 62.4511 42.6297 62.3789 42.5826 62.2906C42.5355 62.2023 42.5158 62.1019 42.5261 62.0023C42.5364 61.9027 42.5763 61.8085 42.6405 61.7317C42.7048 61.655 42.7905 61.5991 42.8867 61.5714C42.9829 61.5437 43.0851 61.5453 43.1804 61.5761C43.2756 61.607 43.3595 61.6655 43.4212 61.7444C43.483 61.8232 43.5197 61.9186 43.5268 62.0185Z" fill="#263238"/>
<path d="M46.8109 61.8108C46.82 61.9294 46.7819 62.0468 46.7048 62.1374C46.6278 62.2281 46.5181 62.2847 46.3996 62.2949C46.3399 62.3022 46.2793 62.2966 46.2219 62.2784C46.1646 62.2602 46.1118 62.2299 46.0673 62.1895C46.0227 62.1491 45.9874 62.0995 45.9637 62.0442C45.94 61.9889 45.9285 61.9292 45.93 61.869C45.924 61.8101 45.9299 61.7505 45.9472 61.6939C45.9646 61.6373 45.9931 61.5847 46.0311 61.5392C46.0691 61.4938 46.1158 61.4564 46.1684 61.4293C46.2211 61.4021 46.2786 61.3858 46.3377 61.3813C46.4572 61.3763 46.5738 61.4186 46.6624 61.499C46.751 61.5793 46.8043 61.6914 46.8109 61.8108Z" fill="#263238"/>
<path d="M44.543 61.356L44.8924 64.2898L46.3957 63.6637L44.543 61.356Z" fill="#F28F8F"/>
<path d="M41.7725 60.7518L42.6461 59.9219C42.7548 60.0429 42.8129 60.2011 42.8081 60.3638C42.8034 60.5264 42.7362 60.681 42.6206 60.7955C42.563 60.8501 42.4948 60.8925 42.4203 60.92C42.3458 60.9475 42.2665 60.9596 42.1872 60.9555C42.1078 60.9514 42.0302 60.9313 41.9589 60.8963C41.8876 60.8612 41.8242 60.8121 41.7725 60.7518Z" fill="#263238"/>
<path d="M46.1445 59.6523L47.1128 60.3803C47.0682 60.4461 47.0106 60.502 46.9437 60.5447C46.8767 60.5873 46.8017 60.6159 46.7232 60.6285C46.6448 60.6411 46.5647 60.6375 46.4877 60.618C46.4107 60.5985 46.3385 60.5635 46.2756 60.515C46.1488 60.4144 46.0648 60.2695 46.0405 60.1094C46.0162 59.9494 46.0533 59.7861 46.1445 59.6523Z" fill="#263238"/>
<path d="M32.1884 32.9894C32.8864 32.8563 33.5999 32.8244 34.3069 32.8947C34.9826 32.954 35.6422 33.134 36.2543 33.4262C36.8417 33.7065 37.3609 34.1115 37.7758 34.6128C38.2134 35.1494 38.5044 35.7902 38.6203 36.4728C38.7295 37.0085 38.7295 37.5606 38.6203 38.0963C38.5225 38.5625 38.3556 39.0115 38.1253 39.4285C37.9017 39.8343 37.6422 40.2193 37.35 40.5788C37.0588 40.9428 36.7821 41.2776 36.5237 41.6016C36.2765 41.9065 36.0572 42.233 35.8685 42.5771C35.695 42.8827 35.6105 43.2307 35.6246 43.5818C35.6267 43.745 35.5853 43.9058 35.5045 44.0477C35.4664 44.1147 35.414 44.1726 35.3512 44.2173C35.2883 44.2619 35.2164 44.2923 35.1405 44.3061L33.4261 44.6301C33.3446 44.6463 33.2608 44.6459 33.1795 44.6291C33.0982 44.6122 33.0211 44.5791 32.9528 44.5318C32.8818 44.4911 32.8218 44.4337 32.7781 44.3646C32.7343 44.2954 32.7081 44.2166 32.7017 44.135C32.6181 43.5965 32.6454 43.0465 32.7818 42.5189C32.9112 42.0487 33.1008 41.5973 33.346 41.1757C33.583 40.7743 33.8546 40.3943 34.1577 40.04C34.4598 39.676 34.7328 39.3484 34.984 39.0281C35.2149 38.7405 35.4149 38.4294 35.5809 38.0999C35.7237 37.8141 35.7685 37.4892 35.7083 37.1754C35.66 36.8988 35.5449 36.6382 35.373 36.4161C35.2011 36.1941 34.9776 36.0174 34.7219 35.9014C34.0877 35.6131 33.3753 35.5452 32.6981 35.7084C31.4216 35.9511 30.6026 36.7689 30.2411 38.1618C30.2092 38.3086 30.1526 38.449 30.0736 38.5768C29.9727 38.6934 29.8305 38.7665 29.6768 38.7806L27.8568 39.1264C27.7311 39.1488 27.6016 39.1242 27.4928 39.0573C27.4357 39.0195 27.387 38.9702 27.3501 38.9125C27.3131 38.8548 27.2886 38.7901 27.2781 38.7224C27.1995 38.1482 27.2619 37.5635 27.4601 37.0188C27.6662 36.3898 27.9816 35.802 28.3919 35.2826C28.852 34.7138 29.4001 34.2223 30.0154 33.8266C30.6785 33.4091 31.4166 33.1247 32.1884 32.9894ZM35.5118 45.6384C35.6736 45.6104 35.84 45.6464 35.9758 45.7387C36.1117 45.8311 36.2063 45.9726 36.2398 46.1334L36.6038 48.1208C36.6204 48.2005 36.6202 48.2827 36.6033 48.3623C36.5864 48.4419 36.5531 48.5171 36.5055 48.5831C36.4608 48.6508 36.403 48.7089 36.3354 48.7539C36.2679 48.7989 36.1921 48.83 36.1124 48.8452L34.1722 49.2092C34.092 49.2259 34.0092 49.2258 33.929 49.2089C33.8488 49.1919 33.773 49.1586 33.7063 49.1109C33.6386 49.0662 33.5805 49.0084 33.5355 48.9409C33.4905 48.8734 33.4595 48.7975 33.4442 48.7178L33.0802 46.7304C33.065 46.6504 33.0662 46.5682 33.0837 46.4888C33.1013 46.4093 33.1348 46.3342 33.1822 46.2681C33.2258 46.1994 33.2832 46.1405 33.351 46.0954C33.4187 46.0503 33.4951 46.0198 33.5753 46.006L35.5118 45.6384Z" fill="#F2A742"/>
<path d="M50.6872 41.1904C51.1164 41.4284 51.5088 41.7276 51.852 42.0785C52.1855 42.4074 52.4558 42.7948 52.6491 43.2215C52.8346 43.6295 52.9302 44.0727 52.9294 44.5209C52.929 44.9987 52.8035 45.4681 52.5654 45.8823C52.3871 46.2143 52.146 46.5085 51.8556 46.7486C51.5954 46.9506 51.3073 47.1137 51.0002 47.2327C50.7017 47.3494 50.3936 47.4395 50.0793 47.5021L49.1911 47.6768C48.9247 47.728 48.6638 47.8048 48.4122 47.9061C48.1857 47.9902 47.9876 48.1366 47.8407 48.3284C47.7691 48.4165 47.6746 48.4833 47.5677 48.5213C47.5174 48.5401 47.4636 48.5476 47.4101 48.5432C47.3566 48.5388 47.3048 48.5226 47.2583 48.4958L46.2063 47.9061C46.104 47.8502 46.0281 47.7559 45.9952 47.6441C45.9773 47.5909 45.9719 47.5344 45.9795 47.4788C45.9871 47.4232 46.0074 47.3702 46.0389 47.3237C46.2327 47.0019 46.4904 46.7232 46.796 46.5047C47.073 46.3113 47.374 46.1546 47.6914 46.0388C47.9959 45.9305 48.3088 45.8477 48.6269 45.7913C48.9436 45.7367 49.2384 45.6821 49.5151 45.6239C49.7647 45.5717 50.0086 45.4949 50.2431 45.3945C50.4455 45.3053 50.6139 45.1535 50.7236 44.9614C50.8192 44.7925 50.8724 44.6029 50.8787 44.4089C50.8851 44.215 50.8443 44.0223 50.76 43.8475C50.552 43.4141 50.2047 43.0629 49.7735 42.8502C49.4021 42.6356 48.9735 42.5407 48.5462 42.5784C48.1189 42.6162 47.7137 42.7848 47.3857 43.0613C47.3045 43.1273 47.212 43.1778 47.1127 43.2105C47.0085 43.2278 46.9016 43.2044 46.8142 43.145L45.6931 42.5189C45.6137 42.4743 45.554 42.4016 45.5256 42.3151C45.5115 42.2699 45.5071 42.2222 45.5127 42.1751C45.5184 42.128 45.5339 42.0827 45.5584 42.0421C45.7709 41.7037 46.0618 41.4215 46.4065 41.2195C46.7989 40.9826 47.2303 40.8175 47.6805 40.7317C48.1734 40.6351 48.6786 40.6191 49.1766 40.6844C49.7079 40.7543 50.2208 40.9261 50.6872 41.1904ZM46.8506 49.3621C46.9 49.3895 46.9435 49.4265 46.9785 49.4709C47.0135 49.5152 47.0393 49.5661 47.0544 49.6206C47.0706 49.6742 47.0756 49.7306 47.0694 49.7863C47.0631 49.842 47.0457 49.8958 47.018 49.9446L46.3374 51.1639C46.2821 51.2632 46.1899 51.3365 46.0807 51.3679C45.9716 51.3993 45.8544 51.3861 45.755 51.3314L44.5647 50.6653C44.5146 50.6393 44.4707 50.6027 44.4361 50.5581C44.4016 50.5134 44.3771 50.4618 44.3645 50.4068C44.3472 50.3535 44.3411 50.2972 44.3468 50.2414C44.3524 50.1856 44.3696 50.1316 44.3972 50.0829L45.0779 48.8635C45.1055 48.8146 45.1426 48.7717 45.187 48.7373C45.2313 48.703 45.2821 48.6778 45.3364 48.6633C45.3899 48.6463 45.4464 48.6407 45.5022 48.647C45.558 48.6533 45.6119 48.6712 45.6603 48.6997L46.8506 49.3621Z" fill="#F2A742"/>
<g opacity="0.2">
<path d="M50.6872 41.1904C51.1164 41.4284 51.5088 41.7276 51.852 42.0785C52.1855 42.4074 52.4558 42.7948 52.6491 43.2215C52.8346 43.6295 52.9302 44.0727 52.9294 44.5209C52.929 44.9987 52.8035 45.4681 52.5654 45.8823C52.3871 46.2143 52.146 46.5085 51.8556 46.7486C51.5954 46.9506 51.3073 47.1137 51.0002 47.2327C50.7017 47.3494 50.3936 47.4395 50.0793 47.5021L49.1911 47.6768C48.9247 47.728 48.6638 47.8048 48.4122 47.9061C48.1857 47.9902 47.9876 48.1366 47.8407 48.3284C47.7691 48.4165 47.6746 48.4833 47.5677 48.5213C47.5174 48.5401 47.4636 48.5476 47.4101 48.5432C47.3566 48.5388 47.3048 48.5226 47.2583 48.4958L46.2063 47.9061C46.104 47.8502 46.0281 47.7559 45.9952 47.6441C45.9773 47.5909 45.9719 47.5344 45.9795 47.4788C45.9871 47.4232 46.0074 47.3702 46.0389 47.3237C46.2327 47.0019 46.4904 46.7232 46.796 46.5047C47.073 46.3113 47.374 46.1546 47.6914 46.0388C47.9959 45.9305 48.3088 45.8477 48.6269 45.7913C48.9436 45.7367 49.2384 45.6821 49.5151 45.6239C49.7647 45.5717 50.0086 45.4949 50.2431 45.3945C50.4455 45.3053 50.6139 45.1535 50.7236 44.9614C50.8192 44.7925 50.8724 44.6029 50.8787 44.4089C50.8851 44.215 50.8443 44.0223 50.76 43.8475C50.552 43.4141 50.2047 43.0629 49.7735 42.8502C49.4021 42.6356 48.9735 42.5407 48.5462 42.5784C48.1189 42.6162 47.7137 42.7848 47.3857 43.0613C47.3045 43.1273 47.212 43.1778 47.1127 43.2105C47.0085 43.2278 46.9016 43.2044 46.8142 43.145L45.6931 42.5189C45.6137 42.4743 45.554 42.4016 45.5256 42.3151C45.5115 42.2699 45.5071 42.2222 45.5127 42.1751C45.5184 42.128 45.5339 42.0827 45.5584 42.0421C45.7709 41.7037 46.0618 41.4215 46.4065 41.2195C46.7989 40.9826 47.2303 40.8175 47.6805 40.7317C48.1734 40.6351 48.6786 40.6191 49.1766 40.6844C49.7079 40.7543 50.2208 40.9261 50.6872 41.1904ZM46.8506 49.3621C46.9 49.3895 46.9435 49.4265 46.9785 49.4709C47.0135 49.5152 47.0393 49.5661 47.0544 49.6206C47.0706 49.6742 47.0756 49.7306 47.0694 49.7863C47.0631 49.842 47.0457 49.8958 47.018 49.9446L46.3374 51.1639C46.2821 51.2632 46.1899 51.3365 46.0807 51.3679C45.9716 51.3993 45.8544 51.3861 45.755 51.3314L44.5647 50.6653C44.5146 50.6393 44.4707 50.6027 44.4361 50.5581C44.4016 50.5134 44.3771 50.4618 44.3645 50.4068C44.3472 50.3535 44.3411 50.2972 44.3468 50.2414C44.3524 50.1856 44.3696 50.1316 44.3972 50.0829L45.0779 48.8635C45.1055 48.8146 45.1426 48.7717 45.187 48.7373C45.2313 48.703 45.2821 48.6778 45.3364 48.6633C45.3899 48.6463 45.4464 48.6407 45.5022 48.647C45.558 48.6533 45.6119 48.6712 45.6603 48.6997L46.8506 49.3621Z" fill="black"/>
</g>
<path d="M25.047 54.5566C25.0955 54.5108 25.1527 54.4752 25.2153 54.4521C25.2778 54.429 25.3444 54.4187 25.411 54.4219C25.4793 54.4229 25.5468 54.4375 25.6093 54.465C25.6718 54.4925 25.7282 54.5324 25.775 54.5821L26.8961 55.7978C26.9423 55.8474 26.9781 55.9057 27.0016 55.9692C27.0252 56.0327 27.0359 56.1002 27.0332 56.1679C27.0305 56.2356 27.0144 56.302 26.9859 56.3635C26.9574 56.4249 26.917 56.4801 26.867 56.5258L25.6804 57.6178C25.6308 57.664 25.5726 57.6998 25.509 57.7233C25.4455 57.7469 25.378 57.7576 25.3103 57.7549C25.2426 57.7522 25.1762 57.7361 25.1147 57.7076C25.0533 57.6791 24.9981 57.6387 24.9524 57.5887L23.8313 56.373C23.7847 56.3236 23.7484 56.2654 23.7246 56.2019C23.7008 56.1383 23.69 56.0707 23.6927 56.0028C23.6954 55.935 23.7116 55.8684 23.7404 55.807C23.7692 55.7455 23.81 55.6904 23.8604 55.645L25.047 54.5566ZM17.2574 47.222C17.6831 46.8242 18.1636 46.4896 18.6843 46.2283C19.1788 45.9784 19.7136 45.8182 20.2641 45.7551C20.7925 45.6968 21.3272 45.7513 21.8329 45.9152C22.3702 46.0986 22.8506 46.4185 23.227 46.8434C23.542 47.1635 23.7896 47.5435 23.955 47.9609C24.0885 48.3271 24.167 48.711 24.188 49.1002C24.2088 49.4791 24.1966 49.8591 24.1516 50.2359C24.1043 50.5999 24.0606 50.9639 24.0205 51.3024C23.981 51.6212 23.9701 51.9427 23.9878 52.2634C23.9999 52.5516 24.0933 52.8305 24.2571 53.0678C24.3277 53.1766 24.3679 53.3023 24.3736 53.4318C24.3768 53.4956 24.3653 53.5593 24.3401 53.618C24.3148 53.6767 24.2765 53.7288 24.228 53.7704L23.1797 54.7422C23.0803 54.8324 22.9499 54.8806 22.8157 54.8769C22.7492 54.8794 22.683 54.8658 22.6228 54.8373C22.5626 54.8087 22.5102 54.7662 22.4699 54.7131C22.1787 54.3745 21.9583 53.9809 21.822 53.5556C21.708 53.1736 21.6444 52.7784 21.6327 52.3799C21.6213 51.9953 21.6433 51.6105 21.6982 51.2296C21.7528 50.8656 21.7965 50.5016 21.8329 50.174C21.8655 49.8728 21.8655 49.5689 21.8329 49.2677C21.8092 49.0082 21.7004 48.7638 21.5235 48.5724C21.3696 48.4019 21.1765 48.2714 20.9609 48.1921C20.7453 48.1128 20.5136 48.0872 20.2859 48.1174C19.7242 48.1901 19.2022 48.446 18.8008 48.8454C18.0194 49.5734 17.8046 50.4968 18.1565 51.6155C18.1997 51.732 18.2219 51.8552 18.222 51.9795C18.213 52.0407 18.192 52.0996 18.1601 52.1527C18.1282 52.2058 18.0862 52.2521 18.0364 52.2889L16.9189 53.3226C16.8408 53.3981 16.7363 53.4399 16.6277 53.4391C16.5721 53.4382 16.5173 53.4254 16.4671 53.4015C16.4169 53.3776 16.3724 53.3433 16.3365 53.3008C16.0271 52.9428 15.8108 52.5139 15.7068 52.0523C15.5833 51.524 15.5549 50.978 15.6231 50.4398C15.6978 49.8498 15.8674 49.2757 16.1254 48.7399C16.4001 48.1649 16.7847 47.6493 17.2574 47.222Z" fill="#F2A742"/>
<g opacity="0.6">
<path d="M25.047 54.5566C25.0955 54.5108 25.1527 54.4752 25.2153 54.4521C25.2778 54.429 25.3444 54.4187 25.411 54.4219C25.4793 54.4229 25.5468 54.4375 25.6093 54.465C25.6718 54.4925 25.7282 54.5324 25.775 54.5821L26.8961 55.7978C26.9423 55.8474 26.9781 55.9057 27.0016 55.9692C27.0252 56.0327 27.0359 56.1002 27.0332 56.1679C27.0305 56.2356 27.0144 56.302 26.9859 56.3635C26.9574 56.4249 26.917 56.4801 26.867 56.5258L25.6804 57.6178C25.6308 57.664 25.5726 57.6998 25.509 57.7233C25.4455 57.7469 25.378 57.7576 25.3103 57.7549C25.2426 57.7522 25.1762 57.7361 25.1147 57.7076C25.0533 57.6791 24.9981 57.6387 24.9524 57.5887L23.8313 56.373C23.7847 56.3236 23.7484 56.2654 23.7246 56.2019C23.7008 56.1383 23.69 56.0707 23.6927 56.0028C23.6954 55.935 23.7116 55.8684 23.7404 55.807C23.7692 55.7455 23.81 55.6904 23.8604 55.645L25.047 54.5566ZM17.2574 47.222C17.6831 46.8242 18.1636 46.4896 18.6843 46.2283C19.1788 45.9784 19.7136 45.8182 20.2641 45.7551C20.7925 45.6968 21.3272 45.7513 21.8329 45.9152C22.3702 46.0986 22.8506 46.4185 23.227 46.8434C23.542 47.1635 23.7896 47.5435 23.955 47.9609C24.0885 48.3271 24.167 48.711 24.188 49.1002C24.2088 49.4791 24.1966 49.8591 24.1516 50.2359C24.1043 50.5999 24.0606 50.9639 24.0205 51.3024C23.981 51.6212 23.9701 51.9427 23.9878 52.2634C23.9999 52.5516 24.0933 52.8305 24.2571 53.0678C24.3277 53.1766 24.3679 53.3023 24.3736 53.4318C24.3768 53.4956 24.3653 53.5593 24.3401 53.618C24.3148 53.6767 24.2765 53.7288 24.228 53.7704L23.1797 54.7422C23.0803 54.8324 22.9499 54.8806 22.8157 54.8769C22.7492 54.8794 22.683 54.8658 22.6228 54.8373C22.5626 54.8087 22.5102 54.7662 22.4699 54.7131C22.1787 54.3745 21.9583 53.9809 21.822 53.5556C21.708 53.1736 21.6444 52.7784 21.6327 52.3799C21.6213 51.9953 21.6433 51.6105 21.6982 51.2296C21.7528 50.8656 21.7965 50.5016 21.8329 50.174C21.8655 49.8728 21.8655 49.5689 21.8329 49.2677C21.8092 49.0082 21.7004 48.7638 21.5235 48.5724C21.3696 48.4019 21.1765 48.2714 20.9609 48.1921C20.7453 48.1128 20.5136 48.0872 20.2859 48.1174C19.7242 48.1901 19.2022 48.446 18.8008 48.8454C18.0194 49.5734 17.8046 50.4968 18.1565 51.6155C18.1997 51.732 18.2219 51.8552 18.222 51.9795C18.213 52.0407 18.192 52.0996 18.1601 52.1527C18.1282 52.2058 18.0862 52.2521 18.0364 52.2889L16.9189 53.3226C16.8408 53.3981 16.7363 53.4399 16.6277 53.4391C16.5721 53.4382 16.5173 53.4254 16.4671 53.4015C16.4169 53.3776 16.3724 53.3433 16.3365 53.3008C16.0271 52.9428 15.8108 52.5139 15.7068 52.0523C15.5833 51.524 15.5549 50.978 15.6231 50.4398C15.6978 49.8498 15.8674 49.2757 16.1254 48.7399C16.4001 48.1649 16.7847 47.6493 17.2574 47.222Z" fill="white"/>
</g>
<path d="M99.168 79.9525C98.1306 79.3592 93.7626 76.833 92.2775 75.974C91.9827 75.8065 91.797 75.6973 91.7825 75.6864C91.0441 75.2748 90.1813 75.1454 89.3546 75.3224C88.645 75.4664 87.9654 75.7311 87.3453 76.105C87.2434 76.1632 87.1415 76.2324 87.0432 76.2979C85.3652 77.3572 83.9237 79.0243 82.7225 81.3175C81.4994 83.5512 80.8432 86.051 80.8115 88.5975C80.8115 91.0096 81.4546 92.7022 82.7407 93.6753C82.8709 93.7723 83.0071 93.861 83.1484 93.941C84.3532 94.6253 90.3956 98.127 90.5303 98.2034H90.5631C90.4144 98.122 90.2721 98.0295 90.1372 97.9268C88.8486 96.9561 88.2056 95.2647 88.208 92.8526C88.2397 90.3062 88.8959 87.8064 90.119 85.5726C91.3882 83.146 92.9279 81.4073 94.7382 80.3565C96.4611 79.3616 97.9486 79.2318 99.2008 79.967L99.168 79.9525Z" fill="#F2A742"/>
<path opacity="0.4" d="M99.2011 79.9743C97.9489 79.2463 96.4614 79.3749 94.7385 80.3601C93.0568 81.3308 91.6069 82.9081 90.3887 85.0921L82.9922 80.8078C84.1351 78.7658 85.4856 77.2625 87.0399 76.2833C87.1381 76.2214 87.2401 76.1486 87.342 76.0904C87.9614 75.716 88.6414 75.4524 89.3513 75.3114C90.1779 75.1324 91.0414 75.2619 91.7791 75.6754L92.2742 75.963C93.7593 76.8184 98.1273 79.3446 99.1647 79.9379L99.2011 79.9743Z" fill="black"/>
<path opacity="0.3" d="M90.5631 98.1925H90.5303C90.3956 98.1161 84.3423 94.6144 83.1484 93.9301C83.0071 93.8501 82.8709 93.7614 82.7407 93.6644C81.4546 92.6937 80.8115 91.0023 80.8115 88.5902C80.8423 86.0436 81.4986 83.5436 82.7225 81.3102C82.8099 81.1391 82.9009 80.9717 82.9955 80.8115L90.3884 85.0812C90.2974 85.2414 90.2064 85.4088 90.119 85.5763C88.8959 87.81 88.2397 90.3098 88.208 92.8563C88.208 95.2684 88.8511 96.9598 90.1372 97.9305C90.2725 98.0282 90.4149 98.1158 90.5631 98.1925Z" fill="black"/>
<path d="M95.9432 17.4898C99.5322 15.415 102.587 14.533 105.109 14.8436C106.135 14.9661 107.126 15.2955 108.021 15.8118C107.996 15.7986 107.971 15.784 107.948 15.7681C107.082 15.2804 101.862 12.2701 100.668 11.5676C99.7572 11.0353 98.7457 10.6981 97.6977 10.5775C95.174 10.2693 92.1176 11.1502 88.5285 13.2201C82.9472 16.4403 78.4579 21.1723 75.0605 27.4161C71.6632 33.6599 69.9827 40.0336 70.0191 46.537L77.412 50.8068C77.361 44.2984 79.0415 37.9236 82.4534 31.6822C85.8653 25.4408 90.3619 20.71 95.9432 17.4898Z" fill="#F2A742"/>
<path opacity="0.2" d="M107.963 15.7721C107.081 15.2807 106.111 14.9655 105.109 14.8439C102.59 14.5332 99.5349 15.4153 95.9434 17.4901C90.3621 20.7079 85.8727 25.4399 82.4754 31.6861C82.3335 31.9446 82.1951 32.2067 82.0605 32.4651L74.6494 28.1881C74.7841 27.9297 74.9224 27.6676 75.0644 27.4091C78.4763 21.1702 82.9656 16.4382 88.5324 13.2131C92.1263 11.1408 95.1827 10.2599 97.7015 10.5705C98.7498 10.6923 99.7612 11.0307 100.672 11.5642C101.877 12.274 107.096 15.2879 107.963 15.7721Z" fill="black"/>
<path opacity="0.3" d="M82.0418 32.4577C78.9089 38.4491 77.3668 44.5631 77.4153 50.7997L70.0225 46.5299C69.9764 40.291 71.5185 34.177 74.6489 28.188L82.0418 32.4577Z" fill="black"/>
<path d="M100.967 29.5897C99.6248 28.8763 97.8327 29.1553 95.5904 30.4269C95.5147 31.761 95.2399 33.0762 94.7751 34.329C94.2145 35.8384 92.5838 38.9518 89.8829 43.6692C87.085 48.5468 85.0611 53.2048 83.8114 57.6432C82.5719 62.0252 81.9423 66.5572 81.9404 71.1112L81.9768 73.3789L87.0219 76.2909L89.3733 77.6486L89.3333 75.3773V75.3482C89.3413 70.809 89.9708 66.2922 91.2042 61.9238C92.454 57.4855 94.479 52.8287 97.2794 47.9535C99.9778 43.2361 101.607 40.1214 102.168 38.6096C102.728 37.115 103.014 35.5319 103.012 33.9359C103.012 31.764 102.33 30.3153 100.967 29.5897Z" fill="#F2A742"/>
<path opacity="0.3" d="M101.444 40.2438C100.609 41.9813 99.2207 44.5463 97.2794 47.9388C94.4766 52.8164 92.4515 57.4743 91.2042 61.9127C89.9695 66.2846 89.34 70.8051 89.3333 75.348V75.4062L89.3733 77.6776L87.0219 76.3235L81.9768 73.4115L81.9404 71.1401C81.9426 66.5862 82.5721 62.0542 83.8114 57.6721C85.0611 53.2337 87.085 48.5758 89.8829 43.6982C91.8242 40.3008 93.2147 37.737 94.0544 36.0068L101.444 40.2438Z" fill="black"/>
<path opacity="0.4" d="M103.012 33.9359C103.013 35.5267 102.728 37.1048 102.171 38.5951C102.014 39.0209 101.771 39.5706 101.443 40.244L94.0537 35.9779C94.3765 35.3033 94.6191 34.7537 94.7817 34.329C95.2465 33.0762 95.5213 31.761 95.5971 30.4269C97.8393 29.1553 99.6314 28.8763 100.973 29.5897C102.315 30.3031 102.995 31.7519 103.012 33.9359Z" fill="black"/>
<path d="M87.4215 45.0196L77.4152 50.8C77.3642 44.2916 79.0447 37.9168 82.4566 31.6754C85.8685 25.434 90.3578 20.702 95.9246 17.4794C99.5136 15.4046 102.569 14.5225 105.09 14.8331C107.611 15.1437 109.629 16.5257 111.143 18.9791C112.66 21.4324 113.418 24.4925 113.418 28.1592C113.403 30.288 113.159 32.4089 112.69 34.4855C112.123 36.9695 111.358 39.404 110.401 41.7655C109.789 43.3088 108.325 46.1578 106.007 50.3122C103.792 54.2725 102.404 56.9673 101.843 58.3966C101.221 60.0933 100.759 61.8445 100.464 63.6273C100.023 66.2921 99.7796 68.9857 99.7357 71.6863L89.3872 77.6632L89.3471 75.3918C89.3492 70.8378 89.9788 66.3059 91.2181 61.9238C92.4678 57.4854 94.4929 52.8287 97.2932 47.9535C99.9917 43.2361 101.621 40.1214 102.182 38.6096C102.737 37.1141 103.018 35.5309 103.012 33.9359C103.012 31.7519 102.331 30.3031 100.97 29.5897C99.6083 28.8762 97.781 29.1747 95.4878 30.4851C93.1436 31.8392 91.2205 33.8703 89.7184 36.5785C88.2494 39.1519 87.459 42.0567 87.4215 45.0196Z" fill="#F2A742"/>
<path d="M94.7203 80.3821C96.5767 79.3071 98.1613 79.2403 99.4742 80.1819C100.787 81.1234 101.443 82.799 101.443 85.2087C101.404 87.7691 100.735 90.2804 99.496 92.5215C98.2002 94.9845 96.6337 96.7463 94.7968 97.8068C92.9598 98.8672 91.3994 98.9109 90.1157 97.9378C88.8296 96.9671 88.1865 95.2745 88.1865 92.86C88.2182 90.3135 88.8744 87.8137 90.0975 85.58C91.3715 83.1582 92.9125 81.4256 94.7203 80.3821Z" fill="#F2A742"/>
</svg>
